<svg width="218" height="89" viewBox="0 0 218 89" fill="none" xmlns="http://www.w3.org/2000/svg">
<path d="M74.2852 46.7943V51.8656C74.0859 52.1058 73.7783 52.3665 73.3623 52.6478C72.9463 52.9232 72.4102 53.1605 71.7539 53.3597C71.0977 53.5589 70.3037 53.6585 69.3721 53.6585C68.5459 53.6585 67.793 53.5238 67.1133 53.2542C66.4336 52.9789 65.8477 52.5775 65.3555 52.0501C64.8691 51.5228 64.4941 50.8783 64.2305 50.1165C63.9668 49.349 63.835 48.473 63.835 47.4886V46.6888C63.835 45.7044 63.9609 44.8285 64.2129 44.0609C64.4707 43.2933 64.8369 42.6458 65.3115 42.1185C65.7861 41.5912 66.3516 41.1898 67.0078 40.9144C67.6641 40.639 68.3936 40.5013 69.1963 40.5013C70.3096 40.5013 71.2236 40.683 71.9385 41.0462C72.6533 41.4037 73.1982 41.9017 73.5732 42.5404C73.9541 43.1732 74.1885 43.8997 74.2764 44.7201H71.7188C71.6543 44.2865 71.5312 43.9085 71.3496 43.5863C71.168 43.264 70.9072 43.0121 70.5674 42.8304C70.2334 42.6488 69.7998 42.558 69.2666 42.558C68.8271 42.558 68.4346 42.6488 68.0889 42.8304C67.749 43.0062 67.4619 43.2669 67.2275 43.6126C66.9932 43.9583 66.8145 44.3861 66.6914 44.8958C66.5684 45.4056 66.5068 45.9974 66.5068 46.6712V47.4886C66.5068 48.1566 66.5713 48.7484 66.7002 49.264C66.8291 49.7738 67.0195 50.2044 67.2715 50.556C67.5293 50.9017 67.8457 51.1624 68.2207 51.3382C68.5957 51.514 69.0322 51.6019 69.5303 51.6019C69.9463 51.6019 70.292 51.5667 70.5674 51.4964C70.8486 51.4261 71.0742 51.3412 71.2441 51.2415C71.4199 51.1361 71.5547 51.0365 71.6484 50.9427V48.6751H69.2402V46.7943H74.2852ZM80.6309 53.6585C79.8926 53.6585 79.2305 53.5414 78.6445 53.307C78.0586 53.0667 77.5605 52.7357 77.1504 52.3138C76.7461 51.8919 76.4355 51.4027 76.2188 50.846C76.002 50.2835 75.8936 49.6859 75.8936 49.0531V48.7015C75.8936 47.9808 75.9961 47.3216 76.2012 46.724C76.4062 46.1263 76.6992 45.6078 77.0801 45.1683C77.4668 44.7289 77.9355 44.3919 78.4863 44.1576C79.0371 43.9173 79.6582 43.7972 80.3496 43.7972C81.0234 43.7972 81.6211 43.9085 82.1426 44.1312C82.6641 44.3539 83.1006 44.6703 83.4521 45.0804C83.8096 45.4906 84.0791 45.9828 84.2607 46.557C84.4424 47.1253 84.5332 47.7581 84.5332 48.4554V49.5101H76.9746V47.8226H82.0459V47.6292C82.0459 47.2777 81.9814 46.9642 81.8525 46.6888C81.7295 46.4076 81.542 46.1849 81.29 46.0208C81.0381 45.8568 80.7158 45.7747 80.3232 45.7747C79.9893 45.7747 79.7021 45.848 79.4619 45.9945C79.2217 46.141 79.0254 46.346 78.873 46.6097C78.7266 46.8734 78.6152 47.1839 78.5391 47.5414C78.4688 47.8929 78.4336 48.2796 78.4336 48.7015V49.0531C78.4336 49.4339 78.4863 49.7855 78.5918 50.1078C78.7031 50.43 78.8584 50.7083 79.0576 50.9427C79.2627 51.1771 79.5088 51.3587 79.7959 51.4876C80.0889 51.6165 80.4199 51.681 80.7891 51.681C81.2461 51.681 81.6709 51.5931 82.0635 51.4173C82.4619 51.2357 82.8047 50.9632 83.0918 50.5999L84.3223 51.9359C84.123 52.223 83.8506 52.4984 83.5049 52.7621C83.165 53.0257 82.7549 53.2425 82.2744 53.4124C81.7939 53.5765 81.2461 53.6585 80.6309 53.6585ZM90.6328 43.973V45.766H85.0957V43.973H90.6328ZM86.4668 41.6263H88.998V50.6175C88.998 50.8929 89.0332 51.1039 89.1035 51.2503C89.1797 51.3968 89.291 51.4994 89.4375 51.558C89.584 51.6107 89.7686 51.6371 89.9912 51.6371C90.1494 51.6371 90.29 51.6312 90.4131 51.6195C90.542 51.6019 90.6504 51.5843 90.7383 51.5667L90.7471 53.43C90.5303 53.5003 90.2959 53.556 90.0439 53.597C89.792 53.638 89.5137 53.6585 89.209 53.6585C88.6523 53.6585 88.166 53.5677 87.75 53.3861C87.3398 53.1986 87.0234 52.8997 86.8008 52.4896C86.5781 52.0794 86.4668 51.5404 86.4668 50.8724V41.6263ZM103.377 50.1341C103.377 49.9056 103.342 49.7005 103.271 49.5189C103.207 49.3314 103.084 49.1615 102.902 49.0091C102.721 48.8509 102.466 48.6956 102.138 48.5433C101.81 48.391 101.385 48.2328 100.863 48.0687C100.283 47.8812 99.7324 47.6703 99.2109 47.4359C98.6953 47.2015 98.2383 46.929 97.8398 46.6185C97.4473 46.3021 97.1367 45.9359 96.9082 45.5199C96.6855 45.1039 96.5742 44.6205 96.5742 44.0697C96.5742 43.5365 96.6914 43.0531 96.9258 42.6195C97.1602 42.18 97.4883 41.805 97.9102 41.4945C98.332 41.1781 98.8301 40.9349 99.4043 40.765C99.9844 40.5951 100.62 40.5101 101.312 40.5101C102.255 40.5101 103.078 40.68 103.781 41.0199C104.484 41.3597 105.029 41.8255 105.416 42.4173C105.809 43.0091 106.005 43.6859 106.005 44.4476H103.386C103.386 44.0726 103.307 43.7445 103.148 43.4632C102.996 43.1761 102.762 42.9505 102.445 42.7865C102.135 42.6224 101.742 42.5404 101.268 42.5404C100.811 42.5404 100.43 42.6107 100.125 42.7513C99.8203 42.8861 99.5918 43.0706 99.4395 43.305C99.2871 43.5335 99.2109 43.7914 99.2109 44.0785C99.2109 44.2953 99.2637 44.4915 99.3691 44.6673C99.4805 44.8431 99.6445 45.0072 99.8613 45.1595C100.078 45.3119 100.345 45.4554 100.661 45.5902C100.978 45.7249 101.344 45.8568 101.76 45.9857C102.457 46.1966 103.069 46.4339 103.597 46.6976C104.13 46.9613 104.575 47.2572 104.933 47.5853C105.29 47.9134 105.56 48.2855 105.741 48.7015C105.923 49.1175 106.014 49.5892 106.014 50.1165C106.014 50.6732 105.905 51.1712 105.688 51.6107C105.472 52.0501 105.158 52.4222 104.748 52.7269C104.338 53.0316 103.849 53.263 103.28 53.4212C102.712 53.5794 102.076 53.6585 101.373 53.6585C100.74 53.6585 100.116 53.5765 99.501 53.4124C98.8857 53.2425 98.3262 52.9876 97.8223 52.6478C97.3242 52.308 96.9258 51.8744 96.627 51.347C96.3281 50.8197 96.1787 50.1956 96.1787 49.4749H98.8242C98.8242 49.8734 98.8857 50.2103 99.0088 50.4857C99.1318 50.7611 99.3047 50.9837 99.5273 51.1537C99.7559 51.3236 100.025 51.4466 100.336 51.5228C100.652 51.599 100.998 51.6371 101.373 51.6371C101.83 51.6371 102.205 51.5726 102.498 51.4437C102.797 51.3148 103.017 51.1361 103.157 50.9076C103.304 50.679 103.377 50.4212 103.377 50.1341ZM112.307 43.973V45.766H106.77V43.973H112.307ZM108.141 41.6263H110.672V50.6175C110.672 50.8929 110.707 51.1039 110.777 51.2503C110.854 51.3968 110.965 51.4994 111.111 51.558C111.258 51.6107 111.442 51.6371 111.665 51.6371C111.823 51.6371 111.964 51.6312 112.087 51.6195C112.216 51.6019 112.324 51.5843 112.412 51.5667L112.421 53.43C112.204 53.5003 111.97 53.556 111.718 53.597C111.466 53.638 111.188 53.6585 110.883 53.6585C110.326 53.6585 109.84 53.5677 109.424 53.3861C109.014 53.1986 108.697 52.8997 108.475 52.4896C108.252 52.0794 108.141 51.5404 108.141 50.8724V41.6263ZM118.881 51.3382V47.1019C118.881 46.7972 118.831 46.5365 118.731 46.3197C118.632 46.097 118.477 45.9242 118.266 45.8011C118.061 45.6781 117.794 45.6165 117.466 45.6165C117.185 45.6165 116.941 45.6664 116.736 45.766C116.531 45.8597 116.373 45.9974 116.262 46.179C116.15 46.3548 116.095 46.5628 116.095 46.8031H113.563C113.563 46.3988 113.657 46.015 113.845 45.6517C114.032 45.2884 114.305 44.9691 114.662 44.6937C115.02 44.4124 115.444 44.1927 115.937 44.0345C116.435 43.8763 116.991 43.7972 117.606 43.7972C118.345 43.7972 119.001 43.9203 119.575 44.1664C120.149 44.4124 120.601 44.7816 120.929 45.2738C121.263 45.766 121.43 46.3812 121.43 47.1195V51.1888C121.43 51.7103 121.462 52.138 121.526 52.472C121.591 52.8001 121.685 53.0872 121.808 53.3333V53.4828H119.25C119.127 53.2249 119.033 52.9027 118.969 52.516C118.91 52.1234 118.881 51.7308 118.881 51.3382ZM119.215 47.6908L119.232 49.1234H117.817C117.483 49.1234 117.193 49.1615 116.947 49.2376C116.701 49.3138 116.499 49.4222 116.341 49.5628C116.183 49.6976 116.065 49.8558 115.989 50.0374C115.919 50.2191 115.884 50.4183 115.884 50.6351C115.884 50.8519 115.934 51.0482 116.033 51.224C116.133 51.3939 116.276 51.5287 116.464 51.6283C116.651 51.722 116.871 51.7689 117.123 51.7689C117.504 51.7689 117.835 51.6927 118.116 51.5404C118.397 51.388 118.614 51.2005 118.767 50.9779C118.925 50.7552 119.007 50.5443 119.013 50.3451L119.681 51.4173C119.587 51.6576 119.458 51.9066 119.294 52.1644C119.136 52.4222 118.934 52.6654 118.688 52.8939C118.441 53.1165 118.146 53.3011 117.8 53.4476C117.454 53.5882 117.044 53.6585 116.569 53.6585C115.966 53.6585 115.418 53.5384 114.926 53.2982C114.439 53.0521 114.053 52.7152 113.766 52.2874C113.484 51.8539 113.344 51.3617 113.344 50.8109C113.344 50.3128 113.438 49.8705 113.625 49.4837C113.812 49.097 114.088 48.7718 114.451 48.5081C114.82 48.2386 115.28 48.0365 115.831 47.9017C116.382 47.7611 117.021 47.6908 117.747 47.6908H119.215ZM125.912 46.0472V53.4828H123.381V43.973H125.763L125.912 46.0472ZM128.777 43.9115L128.733 46.2581C128.61 46.2406 128.461 46.2259 128.285 46.2142C128.115 46.1966 127.96 46.1878 127.819 46.1878C127.462 46.1878 127.151 46.2347 126.888 46.3285C126.63 46.4164 126.413 46.5482 126.237 46.724C126.067 46.8997 125.938 47.1136 125.851 47.3656C125.769 47.6175 125.722 47.9046 125.71 48.2269L125.2 48.0687C125.2 47.4535 125.262 46.888 125.385 46.3724C125.508 45.8509 125.687 45.3968 125.921 45.0101C126.161 44.6234 126.454 44.3246 126.8 44.1136C127.146 43.9027 127.541 43.7972 127.986 43.7972C128.127 43.7972 128.271 43.8089 128.417 43.8324C128.563 43.8499 128.684 43.8763 128.777 43.9115ZM135.07 43.973V45.766H129.533V43.973H135.07ZM130.904 41.6263H133.436V50.6175C133.436 50.8929 133.471 51.1039 133.541 51.2503C133.617 51.3968 133.729 51.4994 133.875 51.558C134.021 51.6107 134.206 51.6371 134.429 51.6371C134.587 51.6371 134.728 51.6312 134.851 51.6195C134.979 51.6019 135.088 51.5843 135.176 51.5667L135.185 53.43C134.968 53.5003 134.733 53.556 134.481 53.597C134.229 53.638 133.951 53.6585 133.646 53.6585C133.09 53.6585 132.604 53.5677 132.188 53.3861C131.777 53.1986 131.461 52.8997 131.238 52.4896C131.016 52.0794 130.904 51.5404 130.904 50.8724V41.6263ZM140.889 53.6585C140.15 53.6585 139.488 53.5414 138.902 53.307C138.316 53.0667 137.818 52.7357 137.408 52.3138C137.004 51.8919 136.693 51.4027 136.477 50.846C136.26 50.2835 136.151 49.6859 136.151 49.0531V48.7015C136.151 47.9808 136.254 47.3216 136.459 46.724C136.664 46.1263 136.957 45.6078 137.338 45.1683C137.725 44.7289 138.193 44.3919 138.744 44.1576C139.295 43.9173 139.916 43.7972 140.607 43.7972C141.281 43.7972 141.879 43.9085 142.4 44.1312C142.922 44.3539 143.358 44.6703 143.71 45.0804C144.067 45.4906 144.337 45.9828 144.519 46.557C144.7 47.1253 144.791 47.7581 144.791 48.4554V49.5101H137.232V47.8226H142.304V47.6292C142.304 47.2777 142.239 46.9642 142.11 46.6888C141.987 46.4076 141.8 46.1849 141.548 46.0208C141.296 45.8568 140.974 45.7747 140.581 45.7747C140.247 45.7747 139.96 45.848 139.72 45.9945C139.479 46.141 139.283 46.346 139.131 46.6097C138.984 46.8734 138.873 47.1839 138.797 47.5414C138.727 47.8929 138.691 48.2796 138.691 48.7015V49.0531C138.691 49.4339 138.744 49.7855 138.85 50.1078C138.961 50.43 139.116 50.7083 139.315 50.9427C139.521 51.1771 139.767 51.3587 140.054 51.4876C140.347 51.6165 140.678 51.681 141.047 51.681C141.504 51.681 141.929 51.5931 142.321 51.4173C142.72 51.2357 143.062 50.9632 143.35 50.5999L144.58 51.9359C144.381 52.223 144.108 52.4984 143.763 52.7621C143.423 53.0257 143.013 53.2425 142.532 53.4124C142.052 53.5765 141.504 53.6585 140.889 53.6585ZM151.849 51.4085V39.9828H154.397V53.4828H152.104L151.849 51.4085ZM145.837 48.8421V48.6576C145.837 47.931 145.919 47.2718 146.083 46.68C146.247 46.0824 146.487 45.5697 146.804 45.1419C147.12 44.7142 147.51 44.3831 147.973 44.1488C148.436 43.9144 148.963 43.7972 149.555 43.7972C150.111 43.7972 150.598 43.9144 151.014 44.1488C151.436 44.3831 151.793 44.7171 152.086 45.1507C152.385 45.5785 152.625 46.0853 152.807 46.6712C152.988 47.2513 153.12 47.8871 153.202 48.5785V48.9828C153.12 49.6449 152.988 50.2601 152.807 50.8285C152.625 51.3968 152.385 51.8949 152.086 52.3226C151.793 52.7445 151.436 53.0726 151.014 53.307C150.592 53.5414 150.1 53.6585 149.537 53.6585C148.945 53.6585 148.418 53.5384 147.955 53.2982C147.498 53.058 147.111 52.721 146.795 52.2874C146.484 51.8539 146.247 51.3441 146.083 50.7581C145.919 50.1722 145.837 49.5335 145.837 48.8421ZM148.368 48.6576V48.8421C148.368 49.2347 148.397 49.6009 148.456 49.9408C148.521 50.2806 148.623 50.5824 148.764 50.846C148.91 51.1039 149.098 51.306 149.326 51.4525C149.561 51.5931 149.845 51.6634 150.179 51.6634C150.612 51.6634 150.97 51.5667 151.251 51.3734C151.532 51.1742 151.746 50.9017 151.893 50.556C152.045 50.2103 152.133 49.8119 152.156 49.3607V48.2093C152.139 47.8402 152.086 47.5091 151.998 47.2162C151.916 46.9173 151.793 46.6624 151.629 46.4515C151.471 46.2406 151.271 46.0765 151.031 45.9593C150.797 45.8421 150.519 45.7835 150.196 45.7835C149.868 45.7835 149.587 45.8597 149.353 46.0121C149.118 46.1585 148.928 46.3607 148.781 46.6185C148.641 46.8763 148.535 47.181 148.465 47.5326C148.4 47.8783 148.368 48.2533 148.368 48.6576Z" fill="#DEA03C"/>
<path d="M203.576 22.4381C203.287 22.2552 202.998 22.0427 202.659 21.9479C200.77 21.3814 199.325 20.4966 197.88 19.5525C196.629 18.7007 194.985 18.0496 193.438 17.3705C191.747 16.6297 189.956 16.0056 188.215 15.3527C186.57 14.7312 184.876 14.1385 183.231 13.5466C182.65 13.329 182.069 13.141 181.489 12.9234C180.618 12.6118 179.747 12.3002 178.827 11.9877C177.665 11.5821 176.453 11.2942 175.291 10.9182C174.71 10.7303 174.08 10.5711 173.548 10.3543C171.13 9.36364 168.365 8.81145 165.65 8.08236C165.55 8.22881 165.451 8.37528 165.351 8.4921C165.301 8.55051 165.252 8.60895 165.201 8.69699C164.909 8.69189 164.617 8.68676 164.326 8.65204C162.433 8.29296 160.491 7.96267 158.698 7.48676C157.825 7.26405 156.95 7.18951 156.124 7.05654C155.25 6.92273 154.375 6.8778 153.55 6.7152C153.307 6.68132 153.113 6.61866 152.871 6.55515C152.144 6.36462 151.368 6.14358 150.592 6.01146C149.96 5.91153 149.328 5.84124 148.646 5.8886C148.256 5.91144 147.819 5.8149 147.432 5.7192C145.298 5.20772 142.913 5.13645 140.831 4.44803C138.688 4.46991 136.898 3.8162 134.908 3.48505C133.499 3.253 132.041 3.13862 130.583 2.93534C130.049 2.86673 129.463 2.94544 128.878 3.02414C127.511 3.17813 126.195 3.2737 124.834 3.16101C124.492 3.1847 124.2 3.17959 123.859 3.20327C122.639 3.35981 121.522 3.19212 120.606 2.67225C120.558 2.64176 120.558 2.64178 120.509 2.6113C120.172 2.39793 119.737 2.24212 119.35 2.05753C118.546 3.5255 117.469 3.83276 115.14 3.37714C113.732 3.11545 112.326 2.79449 110.866 2.73937C109.504 2.65632 108.09 2.7502 106.818 3.11332C106.377 3.25382 105.937 3.36468 105.545 3.4764C105.254 3.41204 104.963 3.37732 104.818 3.28588C103.857 2.58737 102.689 2.53734 101.513 2.96141C100.534 3.27037 99.6056 3.43203 98.4859 3.41248C97.8531 3.40144 97.2167 3.59782 96.5828 3.64603C96.2415 3.66972 95.8542 3.54438 95.5626 3.50966C95.3254 3.14984 95.8128 3.12869 95.9614 2.98308C96.2586 2.69187 96.2167 2.30582 95.8288 2.21013C95.1991 2.0213 94.5673 1.95098 93.9785 2.20747C93.8314 2.26418 93.8278 2.47162 93.7263 2.70697C93.239 2.7281 92.7512 2.77884 92.2638 2.79997C91.0448 2.89726 89.7776 2.96409 88.5586 3.06136C87.9294 2.84291 87.1495 2.88857 86.8035 3.17893C85.7145 4.19733 83.9118 4.25479 82.3044 4.286C80.5996 4.31553 79.1781 4.85388 77.5696 4.94436C77.4236 4.94181 77.2278 4.99765 77.1294 5.05521C76.2439 5.57327 75.1683 5.82128 74.0456 5.97952C72.8737 6.16655 71.6541 6.29344 70.4807 6.56936C70.4719 7.07309 70.4134 7.63526 69.3859 7.91373C68.9458 8.02461 68.5532 8.19559 68.0204 8.03809C67.5362 7.88144 67.0483 7.93221 66.6548 8.16246C66.3596 8.33515 65.967 8.50613 66.2545 8.77791C66.3979 8.92861 66.7858 9.02431 67.0773 9.05904C67.4663 9.09547 67.9054 9.04383 68.2953 9.021C68.7744 9.47396 69.4487 9.90068 68.2177 10.6795C71.3435 10.1412 73.794 9.23554 76.6707 9.01899C77.0606 8.99615 77.4506 8.97334 77.8887 8.98099C77.4967 9.12234 77.3491 9.20869 77.202 9.2654C77.1534 9.26455 77.1534 9.26454 77.1042 9.29332C73.5879 9.88403 70.4507 11.0741 67.0292 11.8147C66.4425 11.9527 65.9506 12.2405 65.3628 12.4377C64.7258 12.6637 64.0894 12.8601 63.4048 13.026C62.4265 13.2757 61.4493 13.4661 60.8057 14.0773C60.3608 14.4548 59.6757 14.6504 58.9015 14.3701C58.8046 14.3387 58.5607 14.3642 58.4137 14.4209C58.2174 14.5064 58.0206 14.6215 58.0185 14.74C58.0165 14.8585 58.2583 14.9517 58.4986 15.1337C58.2003 15.4842 57.7099 15.6831 57.0289 15.6416C55.0352 15.4882 53.4184 16.0528 51.754 16.5573C50.7261 16.8654 49.7945 17.2344 48.7665 17.5425C48.2766 17.7118 47.5905 17.9666 47.2026 17.8709C46.1834 17.6753 45.3989 17.9876 44.5206 18.0908C44.4719 18.09 44.4227 18.1188 44.374 18.1179C43.8867 18.1391 43.3052 17.9807 42.8199 17.8833C42.7754 17.6454 42.7309 17.4075 42.6863 17.1696C42.1017 17.1891 41.5165 17.2381 40.8831 17.2567C40.632 17.6969 40.0924 17.9247 39.3596 18.0601C36.3788 18.6601 33.9723 19.8333 31.5182 20.9465C31.4198 21.004 31.3691 21.1217 31.2692 21.2682C31.4602 21.479 31.6503 21.7491 31.8409 21.9895C30.9543 22.5668 30.5778 21.8193 29.7513 21.7456C29.4075 21.9174 28.9662 22.0875 28.5727 22.3178C28.0802 22.6352 27.5877 22.9527 26.8544 23.1177C26.4148 23.199 25.973 23.3987 25.6768 23.6307C24.6888 24.4434 23.3159 24.9825 21.7991 25.4007C21.4511 25.8096 21.0545 26.2176 20.6071 26.7433C19.9716 26.8804 19.1405 27.0734 18.3088 27.296C17.575 27.4907 17.0328 27.8665 17.2192 28.344C17.4943 29.327 16.6579 29.8162 15.4824 30.2107C15.0417 30.3512 14.601 30.4917 14.1608 30.6026C13.2225 31.3568 12.2354 32.1102 11.2474 32.9229C11.4887 33.0457 11.7782 33.199 12.0677 33.3522C11.9631 33.7653 11.4256 33.8745 10.888 33.9837C10.829 34.5755 10.4794 35.0733 9.98542 35.4796C9.49139 35.8859 8.80368 36.2296 8.117 36.514C8.24597 37.4944 7.84206 38.3173 6.80636 39.0698C6.26365 39.4753 5.9141 39.9731 5.31961 40.5555C4.55989 39.4456 6.08083 38.7904 6.24083 37.9929C5.80841 37.6593 5.32214 37.6212 4.92805 37.8811C4.63236 38.0834 4.48063 38.4068 4.2331 38.6396C3.68781 39.1933 3.23935 39.7782 2.54905 40.2701C1.71169 40.8186 1.55582 41.379 2.07991 42.0403C2.1752 42.1605 2.22078 42.3391 2.26739 42.4585C1.22392 43.6555 0.909096 44.9542 0.789498 46.2266C0.559095 48.2678 0.620765 50.314 0.585594 52.3289C0.583525 52.4475 0.581973 52.5364 0.579904 52.6549C0.503813 54.2245 1.30549 55.7205 1.86326 57.2419C2.1424 57.9877 2.51942 58.7057 2.84776 59.4228C4.39623 62.7695 7.41335 65.6676 11.0679 68.3101C12.126 69.0696 13.2326 69.8299 14.4377 70.5327C15.6428 71.2354 15.692 71.2066 17.5397 71.3575C17.8763 71.6004 18.3595 71.8164 18.6464 72.1178C19.0296 72.4801 19.4149 72.724 20.1435 72.8256C20.9208 72.9281 21.3522 73.3209 21.7344 73.7426C21.3895 73.9737 21.6795 74.0973 21.9701 74.1913C22.2606 74.2853 22.5527 74.2904 22.8924 74.3556C22.506 74.171 22.1202 73.9568 21.7826 73.7731C22.6112 73.7283 23.0436 74.0619 23.4755 74.4251C24.3004 74.5877 24.3481 74.6478 23.8059 75.0236C24.2383 75.3572 24.7696 75.6036 25.3502 75.8212C25.4952 75.883 25.592 75.9144 25.737 75.9762C26.3175 76.1938 26.9473 76.3826 27.5278 76.6002C28.0596 76.817 28.591 77.0634 29.1725 77.2218C29.8022 77.4106 30.5283 77.6604 31.2093 77.7019C32.3279 77.7807 33.2491 78.0043 34.1181 78.4344C35.0839 78.8959 36.0995 79.2989 37.4138 79.3219C37.9006 79.3303 38.4806 79.5776 38.9156 79.763C39.3988 79.9789 39.8327 80.2236 40.4117 80.5302C40.9964 80.5107 41.6784 80.493 42.0135 80.8249C42.7804 81.52 43.898 81.6581 45.0652 81.7377C44.8721 81.6454 44.6789 81.5531 44.7317 81.3169C44.827 81.4372 44.9218 81.587 45.0657 81.7081C46.1812 81.9647 47.3956 82.1341 48.4111 82.5371C49.4753 82.941 50.8435 82.6685 51.8565 83.2197C52.0015 83.2815 52.3909 83.2883 52.538 83.2316C53.4686 82.9218 53.9507 83.197 54.5271 83.6516C54.959 84.0148 55.496 83.9353 56.2319 83.6221C57.0656 83.281 57.5048 83.2293 58.1806 83.5672C58.6151 83.7823 58.902 84.0837 59.3344 84.4173C60.063 84.5189 60.8403 84.6214 61.6663 84.7247C62.0066 84.7603 62.4426 84.8865 62.5897 84.8298C63.6689 84.3743 64.5865 84.8053 65.5565 85.0297C66.5751 85.255 67.6456 85.3033 68.7196 85.1443C70.9029 85.5973 73.0934 85.6356 75.3342 85.5857C76.3052 85.7509 77.2301 85.7671 78.1586 85.5758C79.6661 85.691 81.1731 85.8358 82.6811 85.9215C83.1187 85.9587 83.7536 85.8513 84.0001 85.6777C84.5438 85.213 85.3237 85.1673 86.1513 85.1818C86.8815 85.1945 87.5619 85.2657 88.1942 85.3064C89.3651 85.1786 90.5396 84.8434 91.8001 85.1618C94.9694 84.9207 98.1801 85.0953 101.351 84.7653C102.619 84.6393 103.982 84.6631 105.249 84.6259C105.639 84.6031 105.782 84.7834 105.967 85.3498C107.137 85.2813 108.355 85.2136 109.622 85.1468L109.339 84.6084C111.786 83.9101 114.413 84.0449 117.433 84.0086C115.867 84.4555 114.503 84.5207 113.184 84.7348C114.64 84.9973 116.056 84.7849 117.518 84.7215C118.639 84.6818 119.762 84.4939 120.932 84.4254C124.784 84.1073 128.542 83.6394 132.301 83.0826C133.912 82.8439 135.521 82.6942 137.131 82.5148C141.814 82.0334 146.406 81.1947 150.901 80.3247C153.491 79.8364 156.08 79.348 158.621 78.8292C159.843 78.5838 161.018 78.219 162.24 77.9143C167.182 76.5778 172.075 75.2108 176.826 73.6339C181.429 72.1137 185.698 70.2912 189.822 68.3477C190.067 68.2334 190.216 68.0582 190.414 67.8838C190.999 67.8644 191.248 67.5427 191.398 67.3082C191.6 66.8967 192.475 66.9713 192.625 66.7368C192.925 66.2974 193.315 66.2746 193.948 66.3153C194.531 66.3551 194.732 66.0029 194.979 65.7997C195.372 65.6287 195.909 65.5196 196.108 65.3156C197.394 64.1228 199.355 63.3863 201.075 62.4679C205.253 60.2585 209.624 58.1414 213.271 55.5968C213.962 55.1049 214.604 54.5826 215.294 54.0908C216.676 53.0479 216.988 51.8677 216.622 50.5572C216.485 50.0213 216.154 49.4819 215.919 48.9443C215.684 48.466 215.351 48.0156 215.409 47.4831C215.465 47.0987 215.18 46.6788 214.845 46.3469C214.033 45.4139 213.662 44.37 212.41 43.5479C211.929 43.2431 211.936 42.7986 212.138 42.4168C212.239 42.2111 212.339 42.035 212.488 41.8598C213.481 40.81 213.551 39.5664 214.155 38.4506C214.809 37.2171 214.149 35.9904 213.684 34.767C212.891 32.7673 211.561 30.8471 210.377 28.9294C209.997 28.3597 209.277 27.7839 210.068 27.0863C210.217 26.9407 210.076 26.6123 209.935 26.3727C209.557 25.714 208.932 25.1992 208.014 24.7979C207.966 24.7674 207.918 24.7369 207.87 24.7064C206.227 23.9664 204.827 23.2899 203.576 22.4381ZM68.5316 84.7556C68.6771 84.7878 68.8226 84.82 68.6735 84.9952C68.674 84.9656 68.674 84.9656 68.5316 84.7556ZM78.7469 85.3489C78.5517 85.3751 78.3565 85.4014 78.0675 85.2185C78.214 85.1914 78.4098 85.1355 78.7469 85.3489ZM77.8246 85.1846C77.5325 85.1795 77.1902 85.2625 77.0022 84.8739C77.3896 84.9992 77.6314 85.0923 77.8246 85.1846ZM75.2881 85.4367C74.9008 85.3114 74.4647 85.1853 73.69 84.9346C74.4709 84.8297 74.8609 84.8068 75.2027 84.7535C75.1985 84.9906 75.2431 85.2285 75.2881 85.4367ZM98.8585 82.4988C98.2702 82.7257 97.684 82.834 96.9098 82.5537C97.5985 82.1508 98.2277 82.3692 98.8585 82.4988ZM187.551 17.0899C187.747 17.0341 187.992 16.9494 188.433 16.8089C188.432 16.8386 188.432 16.8386 188.384 16.8377C188.234 17.0129 188.185 17.0713 188.136 17.0705L188.087 17.0696C187.941 17.0967 187.746 17.0933 187.551 17.0899ZM79.6013 8.50697C79.7975 8.42148 79.9943 8.30638 80.2387 8.25136C80.2387 8.25136 80.2387 8.25136 80.5277 8.43425C80.2833 8.48925 80.0383 8.57388 79.6013 8.50697ZM82.4339 8.02292C82.6292 7.99668 82.8726 8.00091 83.4578 7.95185C82.9684 8.09151 82.7239 8.14654 82.4339 8.02292ZM130.048 8.49832C129.998 8.55673 129.948 8.64478 129.849 8.76161C129.654 8.72858 129.461 8.66591 129.267 8.63288C129.267 8.63288 129.267 8.6329 129.416 8.42803C129.66 8.43227 129.854 8.46529 130.048 8.49832ZM111.396 8.61735C110.859 8.6969 110.371 8.74769 109.932 8.79931C110.326 8.56905 110.577 8.15844 111.396 8.61735ZM109.884 8.79846C109.689 8.79506 109.446 8.76115 108.914 8.57402C108.914 8.57402 108.914 8.57405 108.964 8.45637C109.159 8.45977 109.403 8.43438 109.548 8.4962C109.693 8.558 109.788 8.67823 109.884 8.79846ZM99.1685 6.15128C98.6326 6.17156 98.1955 6.10465 98.2027 5.68982C98.9433 5.10994 99.8651 5.30387 100.788 5.43854C100.392 5.78732 99.9479 6.13524 99.1685 6.15128ZM126.679 6.21651C128.099 5.79668 128.099 5.76705 128.724 6.2522C128.091 6.27079 127.361 6.2284 126.679 6.21651ZM124.054 5.96322C123.859 5.98946 123.664 5.98605 123.47 5.98265C122.592 6.02662 121.764 6.04182 120.888 6.02653C120.499 6.01973 120.062 5.95279 119.672 5.946C118.991 5.9341 118.654 5.69113 118.367 5.38972C120.073 5.2713 121.675 5.59563 123.277 5.86072C123.52 5.8946 123.763 5.92849 124.054 5.96322ZM115.632 5.87547C116.229 5.14489 117.297 5.31176 118.318 5.38887C117.722 6.08982 116.653 5.98221 115.632 5.87547ZM115.583 5.87462C112.712 5.79486 109.882 6.13079 107.014 5.84361C106.625 5.80718 106.185 5.88844 105.795 5.91128C104.674 5.98063 102.292 5.73156 100.886 5.41061C103.274 5.27446 105.709 5.25768 108.144 5.27053C110.091 5.27488 112.083 5.51715 113.988 5.19471C114.866 5.09149 115.397 5.39713 115.583 5.87462ZM84.3557 6.72266C84.206 6.92753 83.523 7.00453 83.0419 6.67009C83.582 6.41276 84.1667 6.39331 84.3557 6.72266ZM105.492 3.77186C106.469 3.55181 107.442 3.6281 108.363 3.85166C109.43 4.1074 110.402 4.21326 111.43 3.87553C111.725 3.76211 112.309 3.74268 112.6 3.83667C113.616 4.21009 114.689 4.08061 115.712 4.09846C117.172 4.12395 118.633 4.11982 120.093 4.14531C120.434 4.15126 120.921 4.15975 120.962 4.60507C119.891 4.58638 118.819 4.5973 117.797 4.57946C116.337 4.55397 114.829 4.46837 113.368 4.47252C110.348 4.50873 107.327 4.60419 104.259 4.63956C101.629 4.68256 98.9987 4.72559 96.4171 4.76945C96.0277 4.76265 95.6377 4.78549 95.298 4.72027C95.0552 4.6864 94.862 4.5941 94.6699 4.44255C94.7672 4.44425 94.9138 4.41717 95.0111 4.41887C97.9355 4.26244 100.816 3.80884 103.784 3.97919C104.368 3.95976 104.954 3.88105 105.492 3.77186ZM88.5586 3.06136C88.5586 3.06136 88.5586 3.06135 88.7491 3.30179C88.3592 3.32463 88.3608 3.23576 88.5586 3.06136ZM90.0132 3.41279C91.1349 3.31381 92.2623 2.88887 93.8117 3.39016C93.8604 3.39101 93.8599 3.42063 93.9086 3.42148C93.8599 3.42063 93.8599 3.42063 93.8599 3.42063C92.3027 3.36381 91.1764 3.7295 90.0132 3.41279ZM88.1402 4.71391C88.9201 4.66824 89.7952 4.7428 90.5285 4.57776C91.848 4.30439 93.2116 4.29854 94.5735 4.3816C92.3229 4.9944 89.889 4.95191 87.5478 5.1778C87.4017 5.17525 87.2091 5.05331 87.2137 4.78663C87.5063 4.7621 87.8476 4.73844 88.1402 4.71391ZM83.0662 5.27741C83.8026 4.93458 84.5809 4.97782 85.4064 5.11079C84.1325 5.56279 84.1325 5.56278 83.0662 5.27741ZM89.0449 5.88567C90.3121 5.81887 91.2867 5.77657 92.31 5.73516C90.1107 6.20065 90.1107 6.20067 89.0449 5.88567ZM75.2751 8.07579C75.9597 7.9099 76.6437 7.77366 77.3284 7.60776C77.3284 7.60776 77.3284 7.60774 77.4728 7.69919C77.2719 8.05136 76.6893 7.95228 76.2978 8.06401C75.9555 8.14696 75.6137 8.20025 75.2714 8.28319C75.1736 8.31112 75.027 8.33823 74.9296 8.33653C74.5392 8.38899 74.1974 8.4423 73.8069 8.49477C74.2968 8.32548 74.7862 8.18582 75.2751 8.07579ZM70.9623 9.66035C70.719 9.6561 70.3808 9.502 70.2368 9.38092C70.1405 9.31996 70.2907 9.08548 70.3896 8.99829C70.9794 8.68254 71.6138 8.60468 72.2896 8.94252C72.0395 9.32347 71.693 9.64346 70.9623 9.66035ZM76.1943 11.204C75.2161 11.4537 74.3326 11.8533 73.212 11.893C74.1954 11.347 74.6356 11.2361 76.1943 11.204ZM63.2349 14.3865C64.2629 14.0784 65.2908 13.7703 66.3177 13.5214C67.3933 13.2734 68.2794 12.7257 69.4456 12.8647C67.1898 13.7738 64.8874 14.5635 62.4882 15.3219C61.8518 15.5183 61.2697 15.3896 60.6881 15.2312C61.5208 14.9493 62.3535 14.6675 63.2349 14.3865ZM50.9151 17.1947C51.2585 17.0525 51.5034 16.9678 51.7483 16.8832C51.7483 16.8832 51.7483 16.8832 51.94 17.0644C51.7924 17.1507 51.6443 17.2667 51.4485 17.3226C51.3993 17.3513 51.2543 17.2895 50.9151 17.1947ZM60.5411 15.2879C59.9916 16.0786 59.1543 16.6271 57.7379 16.8692C55.9798 17.1645 54.4604 17.7308 53.0845 18.4478C52.2978 18.8787 51.417 19.1301 49.9095 19.0148C50.5972 18.6712 50.9907 18.4409 51.432 18.2708C54.4681 17.2864 57.5049 16.2723 60.5411 15.2879ZM49.8835 17.7102C48.4553 18.6338 47.6216 18.9749 45.8634 19.2703C45.7169 19.2973 45.5703 19.3244 45.4238 19.3515C45.5222 19.294 45.6206 19.2364 45.7195 19.1492C46.851 18.4872 48.0778 17.9455 49.8835 17.7102ZM41.748 17.9239C42.1384 17.8714 42.431 17.8469 42.6749 17.8215C42.4782 17.9367 42.329 18.1119 41.748 17.9239ZM38.9086 18.7932C39.2509 18.7102 39.4958 18.6256 39.7402 18.5706C39.7402 18.5706 39.7402 18.5706 39.8827 18.7805C39.7351 18.8669 39.5388 18.9524 39.2949 18.9778C39.2457 19.0065 39.1017 18.8855 38.9086 18.7932ZM44.0162 19.0898C44.4528 19.1864 44.8893 19.2829 45.3259 19.3794C44.5351 20.0474 43.2669 20.1734 41.9438 20.6542C42.0494 20.1818 42.0059 19.8847 42.1566 19.6205C42.4098 19.0618 43.0458 18.895 44.0162 19.0898ZM40.1105 19.6737C40.3524 19.7669 40.5461 19.8295 40.6424 19.8905C40.7387 19.9515 40.7858 20.0412 40.9288 20.2215C40.3384 20.5669 39.7491 20.853 38.629 20.8631C39.0722 20.5745 39.3187 20.4009 39.5658 20.1977C39.7636 20.0233 39.9127 19.8481 40.1105 19.6737ZM34.2458 20.9051C35.0837 20.327 36.108 20.2263 37.18 20.1857C36.4446 20.4693 35.758 20.7537 34.975 20.9772C34.8279 21.0339 34.586 20.9407 34.2458 20.9051ZM41.8252 21.8674C42.9039 21.4416 43.9836 20.9566 45.1095 20.6205C45.648 20.4521 46.139 20.2236 46.6786 19.9959C47.2176 19.7978 47.8054 19.6006 48.5356 19.6133C48.4351 19.7894 48.3844 19.9071 48.2865 19.935C47.8945 20.0763 47.5025 20.2177 47.1105 20.3591C45.5911 20.9253 44.023 21.4908 42.5036 22.0571C42.2095 22.1705 41.8687 22.1645 41.8252 21.8674ZM34.4556 22.8354C34.2671 22.4764 34.8108 22.0117 35.2966 22.0795C35.3939 22.0812 35.5861 22.2327 35.585 22.292C35.4348 22.5265 35.2852 22.7313 35.0868 22.9354C34.989 22.9633 34.6498 22.8684 34.4556 22.8354ZM37.1412 22.4081C36.9931 22.524 36.8937 22.6408 36.7461 22.7272C36.6969 22.756 36.5037 22.6637 36.31 22.6011C36.4576 22.5147 36.6057 22.3987 37.1412 22.4081ZM40.1541 22.757C39.4669 23.0711 39.0682 23.5977 37.7057 23.5442C38.5902 23.0854 39.2287 22.7705 40.1541 22.757ZM32.5949 23.4254C32.5949 23.4254 32.5949 23.4254 32.6912 23.4864C32.3966 23.6294 32.1019 23.7725 31.7586 23.9147L32.5949 23.4254ZM36.4773 24.1749C36.1827 24.3179 35.9362 24.4915 35.4489 24.5126C35.6954 24.3391 35.99 24.196 36.4773 24.1749ZM30.9585 25.1159C30.3687 25.4317 29.9264 25.6611 29.5334 25.8617C29.6861 25.4791 29.9347 25.187 30.9585 25.1159ZM26.099 27.3431C25.9995 27.4599 25.9488 27.5775 25.608 27.5716C25.7551 27.5149 25.9514 27.4294 26.099 27.3431ZM21.9194 29.671C21.4202 30.3736 20.4414 30.6529 19.5057 31.259C19.9608 30.2889 19.9608 30.2889 21.9194 29.671ZM31.2755 73.9091C31.7633 73.8584 32.3526 73.5722 32.5852 74.1987C32.0999 74.1014 31.6634 74.0048 31.2755 73.9091ZM37.5774 75.5308C37.7224 75.5926 37.916 75.6553 37.8151 75.861C37.6214 75.7983 37.4769 75.7069 37.5774 75.5308ZM27.1073 75.5851C27.7406 75.5666 27.9793 75.8375 28.0229 76.1347C28.0213 76.2235 27.678 76.3657 27.4817 76.4512C27.0964 76.2074 26.7598 75.9644 27.1073 75.5851ZM42.7689 76.5995C42.9626 76.6622 43.1558 76.7545 43.3003 76.8459C43.3484 76.8764 43.1516 76.9915 43.0527 77.0787C42.859 77.016 42.6162 76.9822 42.4225 76.9195C42.4225 76.9195 42.4225 76.9195 42.3293 76.6808C42.4763 76.6241 42.6721 76.5682 42.7689 76.5995ZM56.9744 77.3514C57.2675 77.2972 57.5606 77.243 57.8537 77.1889C57.8982 77.4268 57.9428 77.6647 57.9873 77.9026C57.6497 77.7188 57.312 77.5351 56.9744 77.3514ZM56.0914 77.7213C56.2851 77.7839 56.4777 77.9059 56.7196 77.999C56.428 77.9643 56.1846 77.96 56.0914 77.7213ZM57.5911 78.281C57.3483 78.2471 57.1069 78.1243 56.9138 78.032C57.3037 78.0092 57.6937 77.9864 58.0349 77.9627C57.9837 78.11 58.0769 78.3487 57.5911 78.281ZM48.3846 78.4759C48.2396 78.4141 48.1935 78.2651 48.0501 78.1144C49.8036 78.0858 51.2106 78.3771 52.9517 79.0596C50.5172 79.0467 49.6425 78.9425 48.3846 78.4759ZM73.8949 78.773C74.4304 78.7824 75.0146 78.7926 75.5495 78.8315C75.6469 78.8332 75.8395 78.9552 75.838 79.0441C75.8369 79.1033 75.7375 79.2202 75.5909 79.2472C74.9545 79.4436 74.3232 79.3437 73.7919 79.0973C73.7914 79.1269 73.7914 79.1269 73.8949 78.773ZM55.6233 79.4322C57.0857 79.3392 58.4964 79.4231 59.803 79.8905C58.9247 79.9937 58.0945 80.1274 57.3136 80.2324C56.7341 79.9555 56.1541 79.7083 55.6233 79.4322ZM59.9485 79.9227C60.6813 79.7873 61.413 79.7111 62.2385 79.8441C63.6952 80.077 65.154 80.1914 66.6118 80.365C67.0489 80.432 67.4849 80.5581 67.9215 80.6547C66.357 81.0127 64.6646 80.331 63.0981 80.8076C62.0805 80.5231 61.0142 80.2377 59.9485 79.9227ZM134.314 82.1396C133.972 82.1929 133.63 82.2758 133.288 82.3291C132.995 82.3537 132.654 82.3774 132.659 82.1107C132.66 82.0514 133.003 81.9389 133.197 81.9423C133.49 81.9177 133.879 81.9542 134.314 82.1396ZM121.186 80.9916C121.186 80.9916 120.209 81.182 120.162 81.0923C120.162 81.0923 121.188 80.9027 121.186 80.9916ZM138.285 77.8221C135.99 78.1378 133.648 78.423 131.496 78.9782C131.3 79.0341 131.008 79.029 130.814 78.9663C130.621 78.9036 130.575 78.7546 130.334 78.5726C133.656 77.9488 136.928 77.4131 140.342 77.1171C139.261 77.691 139.261 77.691 138.285 77.8221ZM123.295 77.353L124.125 77.2193L124.172 77.309C124.172 77.309 123.342 77.4724 123.295 77.353ZM133.791 73.0309C132.081 73.3568 130.565 73.7156 128.955 73.895C126.906 74.126 124.762 74.2368 122.666 74.3484C122.52 74.3459 122.33 74.0758 122.137 73.9538C122.333 73.8683 122.531 73.6939 122.677 73.7261C123.649 73.832 124.621 73.9083 125.503 73.5976C127.511 72.9509 129.661 72.5439 131.997 72.5847C132.387 72.5915 132.779 72.4501 133.169 72.4273C133.315 72.4002 133.46 72.462 133.606 72.4942C133.7 72.644 133.747 72.7634 133.791 73.0309ZM150.105 70.1442C146.63 71.1506 142.872 71.6778 139.208 72.3548C137.987 72.5706 137.305 72.5884 135.701 72.3826C136.441 71.862 137.415 71.8493 138.389 71.8367C138.973 71.8469 139.461 71.7961 140 71.598C141.226 71.1155 142.595 70.8134 144.149 71.0184C144.975 71.1217 145.757 70.9575 146.444 70.6731C146.983 70.4454 147.524 70.1881 148.109 70.1094C149.672 69.8402 151.282 69.6905 152.841 69.6288C151.962 69.7913 150.986 69.8928 150.105 70.1442ZM177.968 61.205C174.487 62.5669 170.814 63.7774 167.045 64.8675C164.696 65.5379 162.251 66.1473 159.806 66.7271C156.922 67.3881 153.941 67.9585 151.009 68.5594C146.465 69.4879 141.871 70.4155 137.137 71.0442C134.696 71.3869 132.067 71.3706 129.569 72.1866C126.106 72.5411 122.643 72.8956 119.13 73.2493C117.423 73.427 115.762 73.724 114.057 73.7832C111.572 73.8584 109.182 74.0834 106.837 74.5463C106.642 74.5726 106.446 74.5988 106.203 74.6242C106.637 74.8689 107.122 74.9663 107.707 74.9172C108.926 74.8199 110.145 74.7523 111.364 74.655C112.144 74.5797 112.776 74.65 113.302 75.1631C112.765 75.2426 112.325 75.3535 111.838 75.3746C108.085 75.5759 104.332 75.7771 100.579 75.9784C100.043 75.9987 99.3637 75.8683 98.6268 76.2407C99.356 76.3127 99.7444 76.3788 100.134 76.3856C103.836 76.302 107.49 76.2176 111.192 76.1044C111.826 76.0858 112.461 75.9487 113.143 75.9013C114.216 75.8015 115.242 75.6119 116.313 75.6602C118.746 75.762 121.088 75.4768 123.38 75.2797C126.111 75.0606 128.891 74.8127 131.529 74.2956C133.044 73.996 133.383 74.0612 135.279 74.2722C134.101 74.8148 132.687 74.879 131.37 75.0635C130.149 75.22 128.979 75.3478 127.759 75.5043C124.782 75.8673 121.853 76.2608 118.829 76.5637C116.439 76.8184 114.001 76.9833 111.563 77.1779C111.368 77.2041 111.22 77.2905 111.073 77.3472C111.849 77.5089 112.626 77.641 113.353 77.8612C113.692 77.956 114.078 78.1406 113.731 78.4903C113.049 78.5376 112.318 78.5841 111.635 78.6611C109.637 78.7448 107.687 78.859 105.104 78.9621C106.073 79.2458 106.461 79.3415 106.946 79.4685C106.845 79.6446 106.745 79.8207 106.645 79.9671C104.896 79.7291 103.287 79.8492 101.816 80.446C101.57 80.5603 101.229 80.584 100.887 80.6373C101.665 80.7101 102.491 80.8135 103.27 80.8271C107.555 80.813 111.751 80.3527 115.992 80.1006C116.43 80.0786 117.115 79.9424 117.264 79.7375C117.812 79.0654 118.687 79.1103 119.561 79.2737C120.774 79.5024 121.941 79.6117 123.209 79.4856C124.087 79.412 125.011 79.4874 125.982 79.6526C124.176 79.8878 122.37 80.1527 120.564 80.3879C120.271 80.4421 119.881 80.4649 119.59 80.4006C118.765 80.238 117.982 80.4318 117.202 80.5071C114.324 80.7829 111.398 81.0579 108.473 81.2736C105.888 81.4656 103.257 81.5679 100.626 81.6701C98.4333 81.7504 96.2391 81.9196 94.003 81.7027C93.0796 81.5977 92.0538 81.7873 91.0792 81.8295C90.4458 81.8481 89.7617 81.9843 89.1305 81.8844C87.6737 81.6515 86.2113 81.7446 84.7509 81.7191C83.0958 81.6902 81.4407 81.6613 79.8359 81.5443C78.2797 81.4283 76.7225 81.3715 75.1617 81.5221C74.7717 81.5449 74.2839 81.5957 73.9447 81.5008C72.7816 81.1841 71.5144 81.2509 70.2995 81.1111C69.5217 81.0383 68.6926 81.1127 68.066 80.7461C69.429 80.7699 70.793 80.7344 72.1058 80.8462C77.0659 81.2292 82.0332 81.1974 86.9979 81.3137C88.3122 81.3366 89.5794 81.2698 90.8953 81.2039C91.1879 81.1793 91.482 81.0659 91.873 80.9838C91.8782 80.6875 91.8828 80.4208 91.888 80.1245C90.2806 80.1557 88.7218 80.1878 87.1713 79.7458C86.5416 79.5569 85.5173 79.6576 84.784 79.8227C84.002 79.9869 83.3692 79.9758 82.6421 79.7853C82.1087 79.6574 81.624 79.5304 80.9456 79.3407C82.9994 78.843 85.0357 79.3528 86.9414 78.9711C87.1894 78.7087 87.4375 78.4463 87.7855 78.0374C85.2547 77.9636 83.016 77.8948 80.7286 77.8253C77.8576 77.7159 75.0358 77.5777 72.1653 77.4387C72.0192 77.4361 71.8255 77.3735 71.6795 77.3709C70.5614 77.2625 69.3947 77.1532 68.2761 77.0744C68.1788 77.0727 68.0799 77.1599 67.8836 77.2454C68.3196 77.3716 68.7075 77.4672 69.3372 77.6561C68.8473 77.8254 68.6014 77.9693 68.3093 77.9642C67.3834 78.0073 66.4093 78.0199 65.4347 78.0622C65.5294 78.212 65.8681 78.3365 65.4751 78.5372C64.6962 78.5236 63.8681 78.5387 63.0903 78.4659C62.0209 78.3583 60.9023 78.2795 60.1349 77.614C59.6077 77.1306 58.6843 77.0255 57.7558 77.2168C57.3674 77.1508 57.0743 77.2049 56.8278 77.3784C55.9045 77.2734 54.9319 77.1971 54.0086 77.0921L53.4907 76.0753C53.0489 76.2751 52.6564 76.4461 52.1655 76.6746C50.7652 75.9981 49.2644 75.4977 47.513 75.4078C47.1236 75.401 46.7362 75.2757 46.3981 75.1216C45.3825 74.7185 44.2645 74.6101 42.8025 74.6735C42.7984 74.9105 43.5762 74.9834 43.0832 75.3305C42.1594 75.2551 41.1868 75.1788 40.7109 74.5481C40.6099 74.7538 40.3158 74.8672 40.0253 74.7732C39.1542 74.4616 38.1356 74.2363 37.5115 73.7216C37.2687 73.6877 37.0745 73.6547 36.8316 73.6208C36.1527 73.4607 35.4738 73.3007 34.844 73.1119C33.972 72.8595 33.6203 73.4758 32.8902 73.4631C32.6468 73.4588 32.3557 73.3945 32.2087 73.4512C31.8166 73.5925 31.5209 73.7949 31.1771 73.9667C30.8389 73.8126 30.4029 73.6864 30.2605 73.4765C29.8809 72.9067 29.204 72.6281 28.4308 72.2886C26.9813 71.6408 25.5329 70.9338 24.9684 69.7976C24.9212 69.7079 24.581 69.6723 24.3387 69.6088C24.334 69.8755 24.3304 70.0829 24.3257 70.3496C23.986 70.2844 23.7431 70.2505 23.55 70.1582C20.3102 68.8568 17.1202 67.4969 14.2263 65.9051C13.3102 65.3852 12.492 64.8374 11.6743 64.26C10.7126 63.5615 10.8172 63.1484 12.0942 62.5186C12.1926 62.461 12.3873 62.4644 12.6804 62.4102C13.2112 62.6863 14.2827 62.6753 14.4676 63.2417C14.6535 63.7488 15.2827 63.9673 15.9119 64.1858C16.5411 64.4042 17.219 64.6235 17.8482 64.842C18.5743 65.0918 19.2516 65.3407 19.9771 65.6202C20.5577 65.8378 21.1874 66.0266 21.8176 66.1858C22.5447 66.3763 23.2728 66.5076 24.0512 66.5509C24.5861 66.5898 25.118 66.8066 25.6509 66.9641C26.0869 67.0903 26.569 67.3654 26.959 67.3426C28.568 67.2225 29.7746 67.8364 31.1319 68.1861C32.3924 68.5045 33.8005 68.7366 34.5648 69.5798C34.6601 69.7 34.9506 69.794 35.1448 69.827C37.1857 70.0701 38.6813 70.8669 40.2261 71.6349C41.2504 71.5342 42.2261 71.4327 43.1536 71.3006C43.5927 71.249 43.7362 71.3997 43.8791 71.5801C43.8284 71.6977 43.7279 71.8738 43.7761 71.9043C44.8413 72.2489 45.9552 72.5944 47.0697 72.9103C48.4751 73.2905 49.8796 73.73 51.385 73.9637C53.6667 74.3592 55.9453 74.9325 58.3803 74.9158C57.6066 74.6059 56.8329 74.296 56.0587 74.0157C56.0649 73.6601 56.0711 73.3045 56.0773 72.949C55.1555 72.755 54.285 72.4138 53.4564 72.4586C52.4331 72.5 51.8039 72.2816 50.981 72.0004C50.3037 71.7515 49.3788 71.7354 48.6025 71.5736C47.7289 71.4102 46.9055 71.1587 46.081 70.9664C44.8687 70.6785 44.82 70.6777 43.8563 70.0977C45.1209 70.179 46.2405 70.1986 47.3581 70.3366C50.7589 70.7813 54.214 70.9009 57.6733 70.7834C63.666 70.5916 69.6592 70.3702 75.6524 70.1488C80.7688 69.9417 85.8309 70.0597 90.9396 70.2971C94.5398 70.4785 98.1379 70.7784 101.738 70.9598C112.197 71.5277 122.431 71.0543 132.446 69.2135C140.701 67.7274 148.955 66.2709 157.21 64.8144C160.19 64.2736 163.217 63.793 166.149 63.2217C171.035 62.2696 175.969 61.3183 180.381 59.6762C180.723 59.5636 181.162 59.5416 181.552 59.4891C180.47 60.1223 179.291 60.7242 177.968 61.205ZM117.157 74.7265C117.008 74.8721 116.714 75.0151 116.469 75.0701C116.03 75.1514 115.542 75.1725 114.908 75.2207C114.968 74.5697 115.362 74.3098 116.094 74.2633C116.533 74.2117 117.305 74.5809 117.157 74.7265ZM121.301 74.4431C120.273 74.7216 119.687 74.8299 118.426 74.5708C119.598 74.3838 120.184 74.2458 121.301 74.4431ZM109.709 80.1688C109.175 80.1002 108.591 80.0604 108.057 79.9918C108.643 79.8834 109.229 79.7751 109.709 80.1688ZM110.782 80.069C110.441 80.0927 110.148 80.1468 109.806 80.1705C110.1 80.0867 110.346 79.9725 110.782 80.069ZM70.939 77.9508C71.9674 77.6131 72.5951 77.9204 73.1244 78.2853C72.4449 78.1549 71.6127 78.4072 70.939 77.9508ZM75.609 78.2101C74.5371 78.2507 73.8545 78.2981 73.1725 78.3158C73.8095 78.0898 74.448 77.7749 75.609 78.2101ZM77.1186 78.2069C78.8757 77.9708 80.3811 78.2045 82.2796 78.2377C80.4687 78.7692 79.203 78.7471 77.1186 78.2069ZM85.4888 78.5012C84.6571 78.7238 84.0724 78.7432 83.3951 78.4943C83.9347 78.2665 84.5685 78.2183 85.4888 78.5012ZM44.1722 71.5259C44.3669 71.5293 44.6103 71.5336 44.7527 71.7435L44.1722 71.5259ZM52.573 72.8582C53.5398 73.2604 54.0235 73.4466 54.7004 73.7252C53.1416 73.7573 53.1416 73.7573 52.573 72.8582ZM173.04 58.9553C172.796 58.9806 172.552 59.0356 172.114 58.9984C172.114 58.9984 172.114 58.9984 172.312 58.824C172.556 58.7986 172.799 58.8325 173.04 58.9553ZM168.214 59.2563C167.384 59.4197 166.552 59.6423 165.769 59.8954C164.692 60.2026 164.691 60.2322 162.937 60.2906C165.043 59.6456 166.904 59.026 168.812 58.4961C169.399 58.3285 170.129 58.3413 170.861 58.2948C170.075 58.6664 169.241 59.0371 168.214 59.2563ZM179.262 56.7816C179.164 56.8391 179.066 56.8671 178.823 56.8332C178.921 56.8053 179.02 56.7477 179.262 56.7816ZM184.505 54.9168C183.671 55.258 183.132 55.456 182.642 55.6253C182.75 55.0344 183.289 54.866 184.505 54.9168ZM196.934 48.6722C196.838 48.5817 196.791 48.4919 196.744 48.3725C196.938 48.4352 197.082 48.5266 196.934 48.6722ZM203.175 42.5864C203.411 43.0055 203.161 43.3864 202.766 43.7056C202.568 43.8799 202.371 44.0247 202.174 44.1695C201.729 44.5174 201.091 44.8027 200.793 45.1828C200.293 45.8854 199.461 46.1377 198.292 46.1765C198.146 46.174 198.047 46.2908 197.899 46.3771C197.992 46.6455 198.084 46.9139 198.224 47.272C197.638 47.3804 197.052 47.459 196.563 47.5691C196.026 47.6782 196.07 47.9458 196.647 48.3412C195.763 48.7703 194.929 49.1707 194.045 49.5999C193.947 49.6278 193.992 49.8065 194.04 49.8666C194.088 49.9267 194.282 49.9598 194.428 49.9623C194.671 49.9962 194.968 49.6753 195.254 50.0656C193.731 50.8393 192.64 51.9763 190.105 52.1099C190.354 51.8178 190.407 51.552 190.701 51.4385C191.045 51.2667 191.582 51.1871 191.975 51.0162C192.465 50.8172 192.273 50.636 191.789 50.4794C191.004 50.8214 190.219 51.1634 189.337 51.5036C189.33 51.8592 189.325 52.1852 189.221 52.539C189.169 52.716 188.875 52.8294 188.678 52.9742C188.039 53.3187 187.399 53.6928 186.712 54.0069C186.074 54.3218 185.339 54.5461 184.466 54.353C183.836 54.2234 183.394 54.4232 182.903 54.6221C180.797 55.356 178.786 56.1804 176.631 56.8838C174.917 57.4467 173.014 57.6803 170.91 58.266C170.92 57.703 171.749 57.5989 172.338 57.3721C173.123 57.0301 174.004 56.7787 174.837 56.4672C176.455 55.8137 177.93 55.0095 179.883 54.688C180.127 54.6626 180.372 54.5779 180.52 54.4916C181.7 53.8305 182.785 53.0491 184.493 52.8418C184.639 52.8147 184.74 52.609 184.84 52.4922C184.988 52.3466 185.138 52.1417 185.383 52.0274C186.759 51.3401 188.087 50.5926 189.75 50.1474C190.288 50.0086 190.778 49.8097 191.172 49.5794C192.648 48.716 194.123 47.8822 195.503 46.9578C196.242 46.4371 196.837 45.8547 198.01 45.6084C198.205 45.5526 198.451 45.4087 198.502 45.291C198.713 44.3758 199.989 43.7757 200.443 42.924C200.644 42.5126 200.944 42.0732 201.678 41.8785C202.938 42.2562 203.034 42.2875 203.175 42.5864ZM187.366 50.0465C188.3 49.5293 188.841 49.2127 189.431 48.8969C189.226 49.4862 188.684 49.8324 187.366 50.0465ZM188.982 35.5511C190.77 36.3529 192.458 37.2716 194.147 38.1606C195.257 38.7432 196.317 39.3841 197.425 40.0259C197.108 41.4727 195.871 42.5775 194.587 43.6517C193.697 44.3772 192.713 45.0121 191.727 45.7062C191.283 45.9949 190.84 46.2836 190.88 46.7585C191.078 46.5841 191.324 46.4698 191.708 46.7433C191.56 46.8889 191.411 47.0642 191.214 47.1793C189.488 48.3941 187.474 49.3963 185.461 50.3986C184.331 50.9717 183.249 51.5456 182.119 52.1187C181.529 52.4344 182.306 52.5962 182.301 52.8925C181.271 53.3191 180.192 53.7449 179.015 54.1986C177.996 54.0326 177.213 54.2264 176.764 54.841C176.665 54.9578 176.613 55.1348 176.466 55.1915C173.721 56.2402 170.927 57.2881 167.895 58.0355C166.672 58.3402 165.403 58.5255 164.467 59.1316C164.074 59.3619 163.487 59.4702 162.95 59.5794C160.215 60.0652 157.479 60.5806 154.838 61.2458C154.25 61.4134 153.568 61.4608 152.982 61.5691C150.637 61.9728 148.294 62.2876 145.997 62.781C141.745 63.6849 137.542 64.5897 133.101 65.1346C133.003 65.1625 132.904 65.2498 132.756 65.3657L133.132 66.1429C131.957 66.5374 130.838 66.4882 129.72 66.3205C129.332 66.2841 128.799 66.0969 128.554 66.1816C127.524 66.6082 126.405 66.5887 125.284 66.6284C124.31 66.641 123.38 66.8915 122.404 67.0227C122.306 67.0506 122.256 67.1683 122.205 67.2564C122.545 67.3512 122.932 67.4765 123.417 67.6035C122.534 67.9735 121.508 68.1334 120.831 67.8844C119.96 67.5728 119.276 67.7091 118.496 67.7251C114.891 67.84 111.375 68.4011 107.772 68.4271C104.459 68.4879 101.197 68.4606 97.9384 68.2555C93.7551 68.0046 89.5719 67.7538 85.3881 67.5326C84.1716 67.4817 82.9521 67.6086 81.7346 67.617C81.2405 68.0233 80.5621 67.8336 79.9298 67.793C78.5674 67.7395 77.21 67.3898 75.7947 67.5726C74.7269 67.3761 73.657 67.2981 72.5338 67.486C70.1557 67.0296 67.7663 67.225 65.3744 67.5686C63.378 67.5633 61.334 67.498 59.3371 67.5224C58.1196 67.5308 56.8504 67.7161 55.6339 67.6653C52.0327 67.5431 48.4222 67.9544 44.8241 67.6545C43.6082 67.5739 42.3912 67.5527 41.1773 67.3537C40.4487 67.252 39.7211 67.0911 38.9914 67.0487C36.1199 66.969 33.5518 66.2424 30.9837 65.5159C29.0459 64.9485 27.3048 64.2661 25.7119 63.4676C23.2505 62.2094 21.3302 60.6346 19.9511 58.7432C19.9516 58.7136 19.9035 58.6831 19.904 58.6535C19.761 58.4731 19.6663 58.3233 19.5233 58.1429C19.238 57.7526 19.0013 57.3632 19.1551 56.9213C19.2069 56.7443 19.065 56.5047 18.8724 56.3828C18.4871 56.139 18.4922 55.8426 18.4974 55.5463C18.5238 54.0351 18.7444 52.557 19.2083 51.0831C19.8276 49.0784 20.4475 47.044 22.0859 45.2349C22.1357 45.1765 22.0404 45.0563 22.0424 44.9378C21.7524 44.8141 21.4138 44.6897 21.1243 44.5364C21.3713 44.3332 21.5696 44.1292 21.7674 43.9548C22.1134 43.6645 22.4101 43.4029 22.7073 43.1117C22.9052 42.9373 23.1035 42.7333 23.3013 42.5589C23.4991 42.3845 23.6975 42.1805 23.8953 42.0061C23.9445 41.9773 23.9942 41.9189 23.9947 41.8893C24.2417 41.6861 24.4887 41.4829 24.7357 41.2798C24.9828 41.0766 25.2293 40.903 25.5244 40.7304C26.2639 40.2097 26.9553 39.6586 27.7916 39.1694C28.5295 38.7376 29.3648 38.3076 30.1509 37.9064C30.4953 37.7049 30.8397 37.5035 31.1835 37.3316C31.8718 36.9583 32.5118 36.5545 33.0551 36.1194C33.3513 35.8874 33.7925 35.7173 34.2332 35.5768C36.4356 34.9335 38.0156 33.6866 40.4583 33.2253C41.8343 32.5084 43.4971 32.0928 45.1128 31.5874C47.9041 30.6877 50.8351 30.1461 53.9097 29.7551C55.6667 29.519 57.4715 29.343 59.2275 29.1662C60.2032 29.0647 61.1302 28.9623 62.1053 28.8904C66.7381 28.497 71.3713 28.074 76.0015 27.8288C81.8497 27.5455 87.6958 27.3808 93.5425 27.1865C94.0784 27.1662 94.6631 27.1468 95.1991 27.1265C99.1462 26.9583 103.046 26.7299 106.993 26.5321C108.212 26.4644 109.43 26.3968 110.698 26.33C114.888 26.166 119.078 26.0613 123.219 25.8965C125.266 25.8136 127.313 25.7308 129.36 25.6183C132.138 25.4593 134.915 25.3892 137.694 25.2006C139.059 25.1059 140.423 25.0408 141.836 25.0061C143.297 24.9724 144.758 24.9683 146.219 24.9937C146.511 24.9988 146.803 25.0039 147.046 25.0082C150.064 25.0905 153.127 25.3218 156.141 25.6116C157.016 25.7157 157.94 25.7911 158.814 25.925C162.36 26.4018 165.856 26.9667 169.15 27.9727C170.7 28.4443 172.001 29.2081 173.751 29.4164C174.042 29.4512 174.282 29.6629 174.523 29.7856C176.938 30.9541 179.55 31.9185 182.212 32.8542C184.581 33.844 186.856 34.6247 188.982 35.5511ZM71.2624 67.7899C71.7016 67.7382 72.092 67.6858 72.5312 67.6342C72.1847 67.9542 71.7471 67.9169 71.2624 67.7899ZM75.7435 67.7199C75.5477 67.7757 75.3028 67.8604 75.107 67.9163C75.107 67.9163 75.107 67.9163 75.0123 67.7664C75.2562 67.741 75.5001 67.7156 75.7435 67.7199ZM198.776 29.6161C198.771 29.9125 198.861 30.2993 199.151 30.4526C199.875 30.8209 200.062 31.2688 200.052 31.8021C200.044 32.3059 200.084 32.7808 199.588 33.2761C199.2 33.21 198.859 33.204 198.617 33.1109C197.165 32.6113 195.713 32.1414 194.359 31.5842C193.247 31.1499 192.233 30.6283 191.121 30.1642C190.3 29.7942 189.478 29.4835 188.557 29.2007C188.364 29.138 188.121 29.0745 187.928 29.0118C187.782 28.9796 187.637 28.9178 187.492 28.856C187.444 28.8255 187.347 28.7942 187.299 28.7637C186.575 28.3658 185.85 28.0567 185.077 27.7468C183.578 27.1575 181.978 26.7146 180.281 26.2997C176.597 25.3462 172.711 24.8041 168.823 24.3805C162.505 23.6775 156.188 22.9448 149.717 22.654C146.457 22.5081 143.243 22.4817 140.029 22.5145C138.763 22.522 137.448 22.5583 136.18 22.6251C131.015 22.8314 125.898 23.0681 120.733 23.304C119.807 23.3471 118.881 23.3902 117.955 23.4334C114.69 23.5542 111.379 23.5853 108.114 23.7062C104.605 23.8524 101.095 24.0875 97.5382 24.2329C94.9556 24.336 92.3731 24.4392 89.7905 24.5423C86.8672 24.6395 83.9925 24.7375 81.0687 24.8643C77.7068 24.9835 74.2987 24.9536 70.9834 25.1921C67.2294 25.4527 63.4775 25.5947 59.721 26.0033C58.257 26.1853 56.7454 26.3071 55.2338 26.4289C52.1131 26.6708 48.9444 26.8823 45.7751 27.1233C42.6052 27.3941 39.4344 27.724 36.5934 28.6822C36.2998 28.766 36.0057 28.8794 36.2926 29.1808C37.2687 29.0497 38.3422 28.9202 39.3671 28.7899C40.3433 28.6587 41.2744 28.3193 42.8787 28.4659C41.2133 29.0296 39.5142 28.7332 38.4293 29.5145C39.0103 29.7025 39.8974 29.0956 40.2749 29.7839C39.1388 30.7125 37.4257 31.2162 35.8571 31.8112C34.6805 32.2649 33.4076 32.6577 32.4242 33.2037C31.49 33.7209 30.5569 34.1788 29.4316 34.4852C28.2084 34.8196 27.2742 35.3368 26.2431 35.8227C25.8506 35.9936 25.5057 36.2247 25.1137 36.3661C24.0842 36.7631 23.1997 37.2219 22.3623 37.7705C22.2142 37.8864 22.0174 38.0015 21.8693 38.1175C21.7704 38.2047 21.672 38.2623 21.5731 38.3495C21.1785 38.639 20.7347 38.9573 20.2914 39.2459C20.1438 39.3323 19.9957 39.4483 19.8963 39.5651C19.8466 39.6235 19.7974 39.6523 19.6995 39.6802C19.5519 39.7666 19.4535 39.8241 19.2583 39.8504C18.6234 39.9578 18.0838 40.1855 17.6416 40.4149C16.8549 40.8458 16.2123 41.3978 15.4257 41.8286C15.131 41.9717 14.8343 42.2332 15.1704 42.5059C15.5546 42.809 15.404 43.0731 15.2046 43.3364C14.855 43.8342 14.5537 44.3624 14.0591 44.7984C13.0187 45.8177 12.2694 46.9013 11.8598 48.0501C11.603 48.8162 11.4922 49.585 11.038 50.4959C11.4259 50.5916 11.8625 50.6881 12.2985 50.8143C12.2721 52.3255 12.295 53.8079 12.2686 55.319C12.2681 55.3487 12.0242 55.3741 11.7797 55.4291C11.6917 54.894 11.5549 54.3581 11.5643 53.8247C11.5736 53.2914 11.6326 52.6996 11.0127 51.9478C10.6989 53.1872 10.439 54.1311 11.0055 55.1488C11.2417 55.5679 11.4773 56.0166 10.8383 56.3611C9.2821 56.245 8.41622 55.6371 7.79581 54.9149C6.98534 53.9227 6.3701 52.9042 5.6575 51.884C5.91072 51.3252 6.21314 50.7377 6.41768 50.1781C6.57044 49.7954 6.57769 49.3806 6.73045 48.9979C6.88321 48.6153 7.03597 48.2326 7.28609 47.8517C9.38387 44.8354 12.2559 42.0993 15.0792 39.3624C15.1284 39.3337 15.1289 39.304 15.1781 39.2753C15.7721 38.7225 16.7047 38.2941 16.8155 37.5254C16.8197 37.2884 17.3593 37.0607 17.7031 36.8888C18.439 36.5756 19.1743 36.2921 19.9102 35.9789C19.9149 35.7122 19.919 35.4752 19.9237 35.2085C20.8548 34.8691 21.7372 34.5288 22.6201 34.1588C23.0127 33.9878 23.4057 33.7872 23.6533 33.5544C23.8024 33.3792 23.7579 33.1413 23.7615 32.9339C24.2985 32.8543 24.689 32.8019 24.9821 32.7477C25.4802 32.1043 25.9287 31.5193 26.4253 30.9648C27.01 30.9454 27.4973 30.9243 28.0819 30.9049C28.5889 29.7577 30.2046 29.2524 31.7727 28.687C33.5857 28.0369 34.422 27.5476 35.757 26.3853C36.0046 26.1525 36.4473 25.8935 36.8378 25.841C38.6425 25.665 39.585 24.6737 41.1495 24.3157C42.2846 23.4463 43.9008 22.9114 45.2281 22.1935C46.0147 21.7627 46.8977 21.3928 47.8282 21.083C48.0245 20.9975 48.2202 20.9416 48.4647 20.8866C49.9825 20.4092 51.5962 20.0224 53.2088 19.6949C54.4796 19.4206 55.5578 19.0245 56.4448 18.4176C56.9373 18.1001 57.5764 17.7556 58.2107 17.6777C59.7726 17.4679 61.0962 16.9575 62.4183 16.5359C64.426 15.8893 66.4343 15.2129 68.7755 14.987C69.3612 14.9083 69.9495 14.6815 70.4886 14.4834C71.8614 13.9442 73.2814 13.4948 74.9872 13.406C75.6206 13.3874 76.3523 13.3113 76.8914 13.1132C77.9214 12.6866 79.0938 12.4699 80.2663 12.2533C80.9985 12.1475 81.6821 12.0408 82.4149 11.9054C85.0036 11.4467 87.639 11.1074 90.321 10.8875C93.7839 10.5626 97.3411 10.4172 100.802 10.1812C101.388 10.1321 101.972 10.1127 102.509 10.0628C103.63 9.99344 104.8 9.92494 105.921 9.85559C106.993 9.81502 108.064 9.80411 109.136 9.79317C111.815 9.75101 114.542 9.70969 117.269 9.69801C118.682 9.69302 120.044 9.74644 121.456 9.77108C123.744 9.81102 125.984 9.76123 128.272 9.83079C128.807 9.84014 129.294 9.87826 129.829 9.88761C132.699 10.0859 135.467 10.4899 138.334 10.8363C139.937 11.0422 141.54 11.2776 143.143 11.4834C144.989 11.7232 146.836 11.9629 148.732 12.1442C149.461 12.2162 150.19 12.2882 150.87 12.3593C151.503 12.4 152.086 12.4695 152.718 12.5101C153.01 12.5152 153.302 12.55 153.593 12.5847C155.783 12.6822 158.02 12.8102 160.053 13.4978C161.07 13.8415 162.138 14.038 163.357 13.9407C164.04 13.8637 164.816 14.0551 165.495 14.2152C167.921 14.7021 170.347 15.2187 172.772 15.7353C173.597 15.9275 174.47 16.091 175.295 16.2832C177.09 16.6702 178.834 17.1749 180.53 17.6491C181.111 17.8074 181.644 17.9649 182.226 18.1233C182.468 18.1868 182.759 18.2808 183.001 18.3443C184.6 18.7872 186.15 19.2588 187.749 19.7017C189.106 20.0811 190.464 20.4012 191.326 21.2461C191.469 21.3968 191.758 21.5797 192.049 21.6441C193.116 21.8702 193.496 22.44 193.925 22.981C194.448 23.6719 195.021 24.3636 195.544 25.0544C195.877 25.5048 196.259 25.9265 196.593 26.3473C196.831 26.6478 197.461 26.8367 197.7 27.1076C197.938 27.4081 197.833 27.8213 198.121 28.0931C198.6 28.546 198.737 29.0523 198.776 29.6161Z" fill="#DEA03C"/>
</svg>
