<svg width="680" height="649" viewBox="0 0 680 649" fill="none" xmlns="http://www.w3.org/2000/svg">
<path d="M158.43 69.5974C158.43 72.3345 158.695 75.0716 158.871 77.8087C159.665 87.4328 163.106 95.4677 171.839 100.589C176.249 103.238 179.601 106.946 181.189 111.979C179.248 112.773 177.22 113.48 174.75 114.451C170.162 110.301 165.752 104.474 158.254 108.447C154.99 106.063 151.814 103.591 148.286 101.03C147.404 103.149 146.61 105.092 145.904 106.946C140.523 108.535 135.848 106.24 130.996 105.092C124.292 103.502 117.676 101.913 110.972 100.589C108.855 100.147 106.208 100.059 104.356 100.942C96.6813 104.827 89.4478 109.242 86.8014 118.513C82.3026 134.406 79.7444 149.857 92.006 163.719C93.241 165.044 93.9467 166.81 94.917 168.311C101.092 178.288 106.12 189.148 116 196.388C117.411 197.448 118.293 199.214 119.528 200.538C123.498 204.865 127.644 209.191 131.614 213.518C133.731 215.813 135.583 218.462 137.788 220.758C142.993 226.32 148.021 232.148 153.755 237.092C156.225 239.211 160.459 239.388 163.635 240.359C164.076 249.012 164.164 249.012 169.457 253.25C172.985 256.075 176.426 259.078 179.866 262.168C191.422 272.498 201.831 284.153 216.298 290.687C217.092 291.04 217.974 291.57 218.503 292.276C224.325 300.046 234.293 303.225 239.498 311.701C240.38 313.202 242.144 314.173 243.644 315.233C250.436 319.824 257.317 324.327 264.109 328.919C265.962 330.155 268.432 331.479 269.049 333.245C271.078 338.631 275.665 340.22 280.076 342.604C287.309 346.401 295.425 349.844 300.717 355.672C307.422 363 315.449 367.68 323.653 372.624C329.916 376.333 336.003 380.394 341.913 384.632C351.44 391.519 360.79 398.848 370.317 405.911C386.813 418.184 403.221 430.369 419.805 442.554C426.421 447.41 433.125 452.178 439.917 456.769C444.769 460.036 449.709 463.038 452.796 467.894C450.856 471.603 448.65 472.044 445.651 470.455C441.329 468.159 437.006 467.453 433.213 471.603C433.037 471.779 431.802 471.073 431.184 470.808C431.802 467.364 432.331 464.009 432.948 460.124C429.155 459.153 426.156 458.447 423.333 457.74C422.628 454.827 421.922 452.178 421.393 450.059C408.866 442.642 408.866 442.642 403.133 443.083C404.015 444.849 404.809 446.439 406.044 448.734C399.428 446.88 396.164 442.554 392.371 438.492C384.431 429.839 375.081 423.923 363.437 425.866C360.526 423.482 358.144 421.54 355.762 419.509C349.146 414.035 339.355 415.182 333.356 408.649C318.536 404.94 305.569 397.523 293.749 387.899C292.602 387.016 290.661 387.105 287.397 386.398C290.485 393.197 292.778 398.495 295.16 403.704C288.632 401.585 286.339 395.051 282.016 390.813C274.254 383.22 267.108 375.008 258.816 368.121C251.142 361.852 242.232 357.085 233.94 351.61C229.618 348.785 225.119 347.284 219.385 348.432C219.209 350.816 219.032 352.935 218.944 354.965C215.239 351.787 212.152 346.489 206.859 347.284C196.273 348.873 189.569 344.105 184.012 336.07C182.777 334.216 180.836 332.892 179.337 331.126C178.896 330.508 178.984 329.448 178.807 328.654C182.689 326.976 183.659 323.974 182.336 319.824C189.746 321.325 195.656 326.799 204.918 327.947C202.713 323.709 201.831 319.383 199.802 318.588C193.01 316.116 188.775 310.553 183.13 306.757C178.102 303.313 173.25 302.518 167.869 306.845C166.987 310.023 166.017 313.467 165.134 316.557C167.163 320.266 169.104 323.356 170.604 326.711C171.045 327.682 170.604 330.243 170.163 330.331C168.575 330.684 166.634 330.773 165.311 330.066C161.694 328.036 161.606 324.062 160.547 320.619C159.665 317.529 158.518 314.438 154.99 313.379C147.139 311.171 141.758 305.697 136.112 300.311C128.35 292.718 118.734 287.773 108.943 282.652L104.885 289.981C100.915 277.796 90.0653 274.441 82.0379 268.172C76.0394 263.492 68.7178 260.402 62.19 256.34C55.3094 251.926 49.752 246.098 45.3414 238.328C50.7224 240.359 55.6623 241.595 59.8965 243.979C63.7779 246.098 67.3064 249.189 70.5702 252.279C74.3634 255.899 80.4501 253.515 83.8904 258.283C85.9193 261.02 89.536 262.698 92.6234 264.552C102.15 270.026 111.589 275.324 121.204 280.621C121.998 281.063 123.322 280.533 124.733 280.445C123.939 279.12 123.674 278.061 123.057 277.619C105.503 267.73 89.3596 255.987 73.9224 243.096C71.8935 241.33 69.3353 240.094 67.0417 238.593C62.1018 235.326 57.1619 232.059 52.222 228.881C43.8418 223.495 35.9908 217.138 25.9346 214.489C23.6411 218.904 21.4357 222.612 15.9665 222.788C12.438 222.877 10.762 225.879 9.61522 229.057C6.79241 237.18 3.88141 245.304 1.14681 253.427C0.441107 255.546 0 257.753 0 259.96C0 264.905 0.176426 269.938 0.441064 274.882C1.14677 288.391 3.96962 301.017 14.3787 310.818C17.378 313.644 19.9361 316.91 22.3179 320.177C39.0783 343.311 61.3079 360.881 82.479 379.423C87.9482 384.191 94.2995 387.811 98.1809 394.345C99.5041 396.641 101.533 399.289 103.826 400.172C111.766 403.086 116.97 409.796 124.027 413.77C128.085 416.065 131.172 418.979 134.083 422.599C138.406 427.72 143.434 432.841 149.08 436.285C158.871 442.289 167.781 449.264 176.602 456.504C182.953 461.625 189.393 467.011 196.626 470.631C203.242 473.898 209.153 477.783 215.239 481.933C218.856 484.405 222.385 487.319 226.001 490.056C226.089 489.615 226.089 489.173 226.089 488.643C226.266 487.849 226.442 487.054 226.707 485.995C227.324 485.023 227.589 484.052 227.324 482.816C227.236 482.198 227.765 481.668 228.471 481.58C228.824 481.58 229.177 481.58 229.618 481.668C230.324 481.756 231.029 481.58 231.47 481.05C232.264 480.344 233.235 479.991 233.852 479.108C234.381 478.313 235.087 477.607 235.793 476.812C235.264 475.311 235.793 473.898 236.057 472.397C237.91 472.044 237.91 472.044 237.822 470.102C237.822 469.748 237.91 469.307 238.086 469.13C238.704 468.424 239.321 467.806 240.027 467.1C240.027 466.835 239.939 466.482 240.027 466.128C240.115 465.775 240.203 465.422 240.38 465.157C241.35 464.098 242.409 462.95 243.467 461.978C243.82 461.625 244.261 461.36 244.702 461.272C245.673 461.096 246.202 460.478 246.555 459.683C246.643 459.418 246.731 459.33 246.819 459.153C245.761 457.564 244.349 456.239 241.703 455.71C236.675 454.738 230.853 452.001 227.854 448.116C223.178 441.847 216.827 440.699 210.388 438.845C210.035 431.958 207.388 427.014 200.42 424.188C196.362 422.511 192.569 419.421 189.569 416.065C183.394 409.355 176.337 406.794 167.516 409.355C166.81 409.532 165.84 408.737 164.429 408.207C155.96 391.608 139.464 383.396 122.792 374.037C126.056 373.772 128.085 373.596 130.731 373.331C129.849 371.565 129.585 370.064 128.702 369.357C123.763 365.208 118.293 362.294 111.677 361.323C103.915 360.175 99.063 355.76 93.3292 346.048C98.4455 348.343 102.68 351.522 107.179 352.052C117.588 353.464 125.968 358.674 133.819 364.59C146.521 374.302 161.694 380.129 173.603 391.078C174.573 391.961 176.073 392.579 177.308 392.667C182.424 392.932 185.159 396.817 188.775 399.466C192.392 402.115 196.362 404.322 200.331 406.529C203.507 408.295 206.947 409.62 210.123 411.386C220.267 417.213 229.53 424.718 240.997 428.25C242.232 428.603 243.291 429.751 244.438 430.457C251.671 434.342 258.905 438.316 266.138 442.2C266.403 441.759 266.932 441.582 267.461 441.494C267.814 441.494 268.167 441.494 268.52 441.406C269.578 441.229 270.284 440.523 270.372 439.463C270.46 438.669 270.725 438.051 271.254 437.521C271.519 437.256 271.784 436.991 271.96 436.638C272.666 435.402 273.636 434.342 274.959 433.812C275.489 433.636 275.841 433.283 276.106 432.665C276.547 431.782 276.635 431.782 278.223 432.4C278.488 432.135 278.753 431.958 278.929 431.782C279.988 430.546 281.311 429.663 282.546 428.691C283.781 427.632 285.368 427.279 286.868 426.837C287.574 426.661 288.103 426.307 288.544 425.778C289.073 425.16 289.691 424.453 290.397 423.924C291.191 423.394 291.984 422.511 293.219 422.864C294.366 422.334 295.601 422.423 296.836 422.423C297.454 422.423 297.895 422.158 298.336 421.716C298.689 421.363 299.218 421.098 299.659 421.275C300.718 421.804 301.6 421.186 302.57 421.01C303.276 421.54 303.981 421.981 304.687 422.511C305.657 421.804 306.628 421.804 307.422 422.511C308.304 423.217 309.098 423.217 310.509 422.687C311.303 422.952 311.479 424.1 312.803 424.012C313.861 425.778 315.625 425.513 317.743 425.689C318.36 426.396 318.977 426.749 319.86 426.661L316.067 424.542C319.066 422.864 320.654 424.188 321.8 426.307C321.889 426.307 322.065 426.307 322.153 426.307C322.947 426.396 323.653 426.661 324.535 426.749C325.064 426.749 325.505 427.102 326.123 427.367C327.005 426.396 328.24 426.749 329.387 426.484C330.445 426.219 331.327 425.866 333.444 425.336C334.062 425.601 334.591 425.689 335.209 425.336C335.738 424.983 336.267 425.16 336.708 425.689C337.326 426.484 338.12 427.014 339.09 427.367C339.796 427.544 340.06 428.073 340.149 428.78C340.237 429.574 340.413 430.369 340.854 431.34C342.266 431.252 342.883 432.047 343.236 433.194C343.324 433.459 343.412 433.724 343.501 433.989C345.265 434.254 346.941 433.901 348.705 432.135C347.559 429.486 346.324 426.749 345.089 424.012C355.145 431.958 355.145 431.958 355.233 441.582C351.705 441.759 348.617 440.876 345.706 439.463C345.706 439.64 345.706 439.905 345.706 440.17C346.059 441.053 346.588 441.936 346.941 442.819C347.117 443.172 347.206 443.613 347.206 444.055C347.206 444.938 347.294 445.732 347.47 446.615C347.735 448.028 347.823 449.441 347.911 450.853C348 451.648 347.647 452.443 347.206 453.149C346.853 453.767 346.588 454.473 346.323 455.18C345.971 456.151 345.618 457.122 345.353 458.182C345.089 459.153 345 460.124 344.736 461.096C344.206 463.391 343.765 465.687 342.619 467.718C342.001 468.777 341.56 469.748 341.295 470.985C341.207 471.603 340.854 472.132 340.501 472.662C339.531 473.987 339.002 475.488 338.737 477.077C338.737 477.253 338.649 477.518 338.561 477.695C343.148 480.079 347.647 482.728 351.969 485.818C354.174 487.407 356.909 488.202 359.379 489.35C365.113 491.999 370.758 494.647 376.933 497.561C379.139 495.972 382.05 494.383 385.931 496.767C398.457 504.183 413.189 506.744 425.627 514.602C428.979 516.721 433.213 517.692 437.183 518.752C446.445 521.224 455.707 523.431 465.058 525.727C475.379 528.288 485.788 528.906 496.197 526.434C499.902 525.551 503.254 524.05 505.195 520.694C512.075 508.775 513.134 495.884 506.694 484.14C498.667 469.395 489.316 455.18 474.409 445.909C471.321 443.966 468.234 442.024 465.411 439.817C462.147 437.344 457.913 435.137 456.237 431.782C450.944 421.186 441.946 417.213 430.478 415.8C430.831 406 425.098 402.821 416.453 402.909C416.364 398.053 414.071 394.875 409.396 394.257C401.456 393.109 394.752 389.577 388.577 384.632C386.46 382.955 383.726 382.16 381.344 380.747C380.638 380.394 380.285 379.423 379.756 378.717C380.726 377.392 381.609 375.98 382.755 374.302C378.345 370.329 373.14 368.651 368.112 366.532C363.966 364.766 359.644 363.177 355.762 360.881C346.765 355.583 337.943 349.844 329.122 344.193C326.652 342.604 324.094 341.191 321.536 339.602C321.447 339.779 321.359 339.955 321.359 340.044C321.183 340.573 320.918 340.927 320.124 340.838C319.595 341.28 319.419 341.898 318.007 343.575C318.007 344.458 317.301 344.988 316.596 346.136C315.978 346.224 315.625 346.666 315.361 347.284C315.184 347.637 315.008 348.078 314.743 348.785C314.92 349.403 314.567 349.933 314.302 350.374C313.949 351.08 313.508 351.787 312.185 352.317C311.744 352.67 311.303 352.758 310.333 352.317C309.803 352.493 309.274 352.405 308.127 352.846C307.775 352.67 307.422 352.581 306.716 352.935C306.187 352.758 305.746 352.846 305.216 352.935C304.599 353.023 304.07 352.846 302.57 352.758C301.864 352.493 301.159 352.228 300.012 351.434C299.218 351.257 298.6 350.904 297.895 350.551C297.542 350.374 297.101 350.374 296.748 350.286C296.219 350.286 295.601 350.109 295.072 349.933C294.719 349.844 294.454 349.579 293.837 348.608C293.66 348.255 293.484 347.99 293.043 347.814C292.514 347.637 292.161 347.195 291.72 345.959C291.191 345.165 290.573 344.37 290.044 343.664C289.514 342.957 289.162 342.163 288.985 341.015C289.338 340.309 288.897 339.779 288.721 339.161C288.544 338.543 288.368 337.925 288.544 337.218C288.632 336.777 288.368 336.512 288.544 335.364C288.632 335.011 288.721 334.746 288.632 334.305C288.544 333.863 288.632 333.333 288.809 332.009C288.632 331.656 288.368 331.302 288.191 330.949C288.191 330.331 288.191 329.625 288.632 328.389C288.632 327.418 288.985 326.535 289.691 325.917C289.514 325.21 289.691 324.504 289.867 322.561C289.779 322.12 289.514 321.767 289.162 321.502C288.809 321.237 288.632 320.884 288.632 320.354C288.632 320.001 288.456 319.648 288.456 319.294C288.368 318.941 288.368 318.5 288.368 318.147C288.456 317.352 288.721 316.557 288.897 315.763C288.985 315.586 288.985 315.321 289.073 315.145C284.663 311.789 280.164 309.317 274.783 310.288C269.843 299.163 266.314 296.338 255.817 295.19C251.759 294.749 247.084 294.572 245.143 290.334C241.703 282.829 234.734 278.944 229.177 273.734C223.531 268.348 215.592 265.788 210.123 260.843C200.331 251.926 188.07 246.098 180.131 235.15C179.425 234.09 178.19 233.119 176.955 232.677C168.31 229.587 163.105 222.788 157.901 215.813C155.784 212.988 153.137 209.897 149.962 208.485C143.258 205.394 139.2 200.362 135.936 194.093C134.436 191.356 132.143 189.06 130.29 186.499C121.91 175.639 113.53 164.867 105.326 153.919C103.385 151.446 101.357 148.709 104.091 144.736C109.296 144.118 114.412 146.06 119.44 148.003C125.35 150.299 131.349 152.594 137.083 155.42C145.639 159.658 154.284 163.896 162.4 169.017C183.218 182.085 202.89 197.006 224.237 209.279C226.972 210.869 229.353 213.164 231.911 215.019C235.264 217.402 238.527 219.875 241.968 222.082C248.143 225.967 254.318 229.852 260.669 233.472C267.285 237.357 273.813 241.772 280.958 244.686C289.162 247.952 296.571 251.926 302.658 258.371C305.393 261.285 309.009 264.463 312.714 265.17C320.301 266.583 325.946 271.174 332.209 274.794C337.326 277.796 342.089 281.504 347.382 284.065C362.996 291.57 378.521 299.075 393.165 308.522C394.664 309.494 396.428 310.023 398.193 310.642C410.101 315.145 422.098 319.559 433.919 324.151C436.477 325.122 438.77 326.623 441.152 327.947C443.975 329.448 446.533 331.391 449.444 332.627C462.059 337.925 475.114 342.251 487.288 348.432C499.99 354.877 511.811 352.67 523.896 349.138C524.866 344.017 524.954 339.249 526.719 335.276C528.924 330.508 527.954 326.535 526.278 322.12C523.896 315.763 521.691 309.317 519.132 302.165C511.193 295.278 502.813 287.597 494.08 280.445C488.787 276.118 482.965 272.587 477.319 268.79C473.879 266.494 469.91 264.905 466.91 262.256C457.736 254.045 448.209 246.451 436.124 242.743C433.213 241.86 430.214 240.006 428.097 237.71C423.863 233.207 418.482 231 413.277 228.174C407.279 224.908 401.28 221.641 395.458 218.021C383.638 210.516 372.17 202.481 360.173 195.152C342.178 184.292 322.33 177.228 304.158 166.986C299.041 164.073 294.013 160.982 289.162 157.539C279.194 150.387 269.49 143.058 257.052 140.056C249.642 138.291 242.85 134.052 237.028 128.666C233.676 125.664 229.883 123.192 226.178 120.455C213.74 111.361 199.89 104.032 190.187 91.4944C189.569 90.6997 189.569 89.287 189.216 87.6977C191.334 88.0509 192.745 87.8743 193.892 88.4041C215.769 99.7941 237.645 111.096 258.022 125.046C260.669 126.812 263.051 129.284 265.962 130.344C275.93 133.964 284.398 140.233 293.396 145.531C299.659 149.239 305.746 153.566 312.45 156.214C319.86 159.216 325.858 163.808 332.033 168.576C338.561 173.52 344.824 178.729 351.528 183.497C353.998 185.263 357.262 186.941 360.173 187.029C366.612 187.382 371.288 190.826 375.963 194.534C379.844 197.624 383.461 201.509 387.872 203.629C401.368 210.251 414.159 218.021 426.862 226.055C445.386 237.622 464.97 247.688 484.112 258.283C491.434 262.344 499.461 264.199 507.665 265.258C512.252 265.876 514.898 264.817 516.751 261.903C516.486 261.815 516.31 261.726 516.045 261.55C513.134 258.724 509.341 257.841 506.518 255.457C505.459 254.574 504.313 253.78 503.166 252.897C502.372 252.279 501.666 251.484 500.784 250.954C495.403 247.776 490.816 243.538 486.141 239.476C483.583 237.357 481.024 235.326 478.643 233.031C473.526 227.91 467.351 224.113 461.882 219.345C459.236 216.961 456.854 214.4 454.472 211.752C450.15 206.895 446.092 201.951 442.299 196.742C440.182 193.74 438.065 190.738 436.477 187.382C435.948 186.234 435.683 185.087 436.036 183.762C436.653 181.202 436.918 178.465 437.447 175.904C431.184 169.723 424.921 163.454 418.305 156.832C413.012 159.393 407.896 159.04 403.485 154.713C402.515 153.83 401.104 153.124 399.869 152.859C392.988 151.623 388.842 146.767 384.52 141.999C381.785 138.997 379.139 135.818 376.492 132.905C373.581 132.463 370.935 132.11 368.024 131.668C363.878 123.545 357.527 118.248 349.058 114.804C343.677 112.597 338.825 108.888 333.885 105.533C331.68 104.032 329.739 102.001 328.152 99.7941C326.387 97.3218 326.211 94.673 329.828 93.3486C330.71 93.5252 331.768 93.5252 332.474 93.9667C338.031 97.8516 344.03 101.03 349.235 105.622C354.263 109.948 361.231 111.979 365.907 117.188C366.789 118.159 368.024 118.954 369.171 119.66C371.199 120.808 373.493 121.779 375.345 119.572C377.11 117.453 376.404 115.157 374.375 113.656C371.817 111.714 369.082 110.036 366.348 108.447C353.733 101.119 341.031 93.8784 328.416 86.4616C326.564 85.3138 324.182 84.3425 324.623 80.6342C325.858 80.1927 327.622 78.8683 328.946 79.1332C338.737 81.2522 348.97 82.4884 358.056 86.285C375.698 93.6135 392.812 102.266 410.013 110.743C422.628 117.012 435.066 123.457 447.592 129.903C448.209 128.843 448.915 127.783 449.532 126.724C451.297 123.722 453.767 121.338 456.678 119.484C458.177 118.513 459.589 117.453 461 116.393C463.558 114.363 466.293 112.685 469.116 111.272C468.586 110.301 468.057 109.33 467.528 108.359C459.412 93.0837 444.857 84.8723 431.008 76.3077C424.215 72.0696 415.571 70.7452 408.161 67.2134C398.898 62.7987 388.489 63.2401 379.139 59.62C363.437 53.616 347.029 53.7926 330.622 54.7638C323.124 55.2053 316.508 56.2649 311.832 63.5933C308.568 68.6261 302.746 69.2442 297.101 66.507C293.043 64.4763 288.985 62.2689 284.927 60.3264C283.428 59.6201 281.487 58.6488 280.605 61.2977C281.134 62.0923 281.399 63.0635 282.105 63.5933C284.663 65.4475 287.221 67.6549 290.044 68.8027C299.394 72.5111 302.658 80.7225 307.333 90.6115C297.983 87.3446 292.161 81.6937 285.016 75.8663C284.222 79.3981 283.692 81.5171 283.251 83.5479C282.722 85.8435 281.928 88.5807 279.282 88.3158C277.429 88.1392 275.665 86.1967 274.165 84.6957C272.93 83.4596 272.048 81.8703 270.99 80.4576C275.136 77.1024 275.577 74.3652 271.784 72.5111C264.815 69.0676 258.552 64.6529 252.377 59.8849C250.348 58.2073 247.437 57.501 244.879 56.7946C243.203 56.3532 241.262 56.3531 240.997 58.7371C242.497 63.8582 251.848 62.0923 250.877 70.392C244.526 69.5973 240.38 65.9773 235.793 63.3284C219.385 53.7043 201.743 48.2301 182.777 47.0822C168.222 46.0227 158.342 55.2936 158.43 69.5974ZM74.0988 277.973C75.2455 277.796 75.5984 278.502 75.9513 279.209C75.3338 278.856 74.628 278.502 74.0988 277.973ZM210.123 438.58C209.329 438.669 208.623 438.757 207.829 438.757C208.8 437.786 209.505 438.227 210.123 438.58ZM221.15 358.497C220.267 357.703 219.562 356.555 218.944 355.495C220.179 355.672 221.414 355.76 222.561 356.202C223.09 356.378 223.178 357.526 223.531 358.232C222.649 358.409 221.591 358.85 221.15 358.497ZM240.733 369.181C241.527 368.033 242.497 367.856 242.85 368.21C243.644 369.181 244.085 370.417 244.614 371.565C242.321 371.3 241.438 370.24 240.733 369.181ZM301.247 410.414C300.894 410.326 300.629 409.796 300.717 409.443C300.894 408.913 301.423 408.649 301.864 408.825C302.217 409.002 302.394 409.267 302.305 409.708C302.305 410.15 301.688 410.503 301.247 410.414ZM303.276 417.919C303.452 417.919 303.54 418.096 303.893 418.449C303.276 418.449 303.011 418.538 303.276 417.919ZM303.717 415.094C303.717 414.741 304.158 414.476 304.334 414.653C304.511 414.741 304.687 415.006 303.717 415.094ZM392.106 467.629C390.43 461.979 386.99 458.358 382.226 455.268C380.109 453.944 378.786 451.207 377.286 449.087C374.993 445.909 372.876 442.642 369.347 437.521C376.933 438.316 381.609 442.377 386.284 445.291C391.047 448.293 391.841 455.533 397.222 458.712C397.752 462.95 398.281 467.1 398.81 471.249C395.017 472.132 392.812 470.102 392.106 467.629ZM158.166 109.242C158.254 110.125 158.43 111.096 158.518 111.979C157.901 110.478 157.989 109.86 158.166 109.242ZM438.329 290.687C432.684 293.777 429.773 291.835 427.479 283.27C432.331 284.506 435.33 287.42 438.329 290.687ZM355.762 246.275C350.028 245.039 347.206 243.008 344.206 241.683C343.589 241.419 343.501 240.271 342.795 238.593C348 238.505 350.999 241.242 355.762 246.275ZM225.737 150.122C226.619 151.005 227.413 151.888 228.03 152.947C226.178 153.477 225.384 152.506 224.678 151.446C225.737 150.122 225.737 150.122 225.737 150.122ZM318.889 88.9339C318.889 88.669 320.83 88.3158 320.918 88.4924C321.359 89.5519 321.536 90.6998 321.8 91.7593C321.095 91.9359 320.301 92.1125 319.154 92.3773C319.066 91.1412 318.801 89.9934 318.889 88.9339ZM316.331 101.56C317.037 102.001 318.007 102.178 318.36 102.796C318.713 103.326 318.36 104.297 318.272 105.003C317.566 104.65 316.508 104.474 316.155 103.856C315.89 103.414 316.243 102.443 316.331 101.56ZM184.541 116.393C182.336 115.599 181.895 114.01 181.454 112.42L184.541 116.393Z" fill="#E5D1B8"/>
<path d="M310.43 190.597C310.43 193.334 310.695 196.072 310.871 198.809C311.665 208.433 315.106 216.468 323.839 221.589C328.249 224.238 331.601 227.946 333.189 232.979C331.248 233.773 329.22 234.48 326.75 235.451C322.162 231.301 317.752 225.474 310.254 229.447C306.99 227.063 303.814 224.591 300.286 222.03C299.404 224.149 298.61 226.092 297.904 227.946C292.523 229.535 287.848 227.24 282.996 226.092C276.292 224.502 269.676 222.913 262.972 221.589C260.855 221.147 258.208 221.059 256.356 221.942C248.681 225.827 241.448 230.242 238.801 239.513C234.303 255.406 231.744 270.857 244.006 284.719C245.241 286.044 245.947 287.81 246.917 289.311C253.092 299.288 258.12 310.148 268 317.388C269.411 318.448 270.293 320.214 271.528 321.538C275.498 325.865 279.644 330.191 283.614 334.518C285.731 336.813 287.583 339.462 289.788 341.758C294.993 347.32 300.021 353.148 305.755 358.092C308.225 360.211 312.459 360.388 315.635 361.359C316.076 370.012 316.164 370.012 321.457 374.25C324.985 377.075 328.426 380.078 331.866 383.168C343.422 393.498 353.831 405.153 368.298 411.687C369.092 412.04 369.974 412.57 370.503 413.276C376.325 421.046 386.293 424.225 391.498 432.701C392.38 434.202 394.144 435.173 395.644 436.233C402.436 440.824 409.317 445.327 416.109 449.919C417.962 451.155 420.432 452.479 421.049 454.245C423.078 459.631 427.665 461.22 432.076 463.604C439.309 467.401 447.425 470.844 452.717 476.672C459.422 484 467.449 488.68 475.653 493.624C481.916 497.333 488.003 501.394 493.913 505.632C503.44 512.519 512.79 519.848 522.317 526.911C538.813 539.184 555.221 551.369 571.805 563.554C578.421 568.41 585.125 573.178 591.917 577.769C596.769 581.036 601.709 584.038 604.796 588.894C602.856 592.603 600.65 593.044 597.651 591.455C593.329 589.159 589.006 588.453 585.213 592.603C585.037 592.779 583.802 592.073 583.184 591.808C583.802 588.364 584.331 585.009 584.948 581.124C581.155 580.153 578.156 579.447 575.333 578.74C574.628 575.827 573.922 573.178 573.393 571.059C560.866 563.642 560.866 563.642 555.133 564.083C556.015 565.849 556.809 567.439 558.044 569.734C551.428 567.88 548.164 563.554 544.371 559.492C536.431 550.839 527.081 544.923 515.437 546.866C512.526 544.482 510.144 542.54 507.762 540.509C501.146 535.035 491.355 536.182 485.356 529.649C470.536 525.94 457.569 518.523 445.749 508.899C444.602 508.016 442.661 508.105 439.397 507.398C442.485 514.197 444.778 519.495 447.16 524.704C440.632 522.585 438.339 516.051 434.016 511.813C426.254 504.22 419.108 496.008 410.816 489.121C403.142 482.852 394.232 478.085 385.94 472.61C381.618 469.785 377.119 468.284 371.385 469.432C371.209 471.816 371.032 473.935 370.944 475.965C367.239 472.787 364.152 467.489 358.859 468.284C348.273 469.873 341.569 465.105 336.012 457.07C334.777 455.216 332.836 453.892 331.337 452.126C330.896 451.508 330.984 450.448 330.807 449.654C334.689 447.976 335.659 444.974 334.336 440.824C341.746 442.325 347.656 447.799 356.918 448.947C354.713 444.709 353.831 440.383 351.802 439.588C345.01 437.116 340.775 431.553 335.13 427.757C330.102 424.313 325.25 423.518 319.869 427.845C318.987 431.023 318.017 434.467 317.134 437.557C319.163 441.266 321.104 444.356 322.604 447.711C323.045 448.682 322.604 451.243 322.163 451.331C320.575 451.684 318.634 451.773 317.311 451.066C313.694 449.036 313.606 445.062 312.547 441.619C311.665 438.529 310.518 435.438 306.99 434.379C299.139 432.171 293.758 426.697 288.112 421.311C280.35 413.718 270.734 408.773 260.943 403.652L256.885 410.981C252.915 398.796 242.065 395.441 234.038 389.172C228.039 384.492 220.718 381.402 214.19 377.34C207.309 372.926 201.752 367.098 197.341 359.328C202.722 361.359 207.662 362.595 211.897 364.979C215.778 367.098 219.306 370.189 222.57 373.279C226.363 376.899 232.45 374.515 235.89 379.283C237.919 382.02 241.536 383.698 244.623 385.552C254.15 391.026 263.589 396.324 273.204 401.621C273.998 402.063 275.322 401.533 276.733 401.445C275.939 400.12 275.674 399.061 275.057 398.619C257.503 388.73 241.36 376.987 225.922 364.096C223.893 362.33 221.335 361.094 219.042 359.593C214.102 356.326 209.162 353.059 204.222 349.881C195.842 344.495 187.991 338.138 177.935 335.489C175.641 339.904 173.436 343.612 167.967 343.788C164.438 343.877 162.762 346.879 161.615 350.057C158.792 358.18 155.881 366.304 153.147 374.427C152.441 376.546 152 378.753 152 380.96C152 385.905 152.176 390.938 152.441 395.882C153.147 409.391 155.97 422.017 166.379 431.818C169.378 434.644 171.936 437.91 174.318 441.177C191.078 464.311 213.308 481.881 234.479 500.423C239.948 505.191 246.3 508.811 250.181 515.345C251.504 517.641 253.533 520.289 255.826 521.172C263.766 524.086 268.97 530.796 276.027 534.77C280.085 537.065 283.172 539.979 286.083 543.599C290.406 548.72 295.434 553.841 301.08 557.285C310.871 563.289 319.781 570.264 328.602 577.504C334.953 582.625 341.393 588.011 348.626 591.631C355.242 594.898 361.153 598.783 367.239 602.933C370.856 605.405 374.385 608.319 378.001 611.056C378.089 610.615 378.089 610.173 378.089 609.643C378.266 608.849 378.442 608.054 378.707 606.995C379.324 606.023 379.589 605.052 379.324 603.816C379.236 603.198 379.765 602.668 380.471 602.58C380.824 602.58 381.177 602.58 381.618 602.668C382.324 602.756 383.029 602.58 383.47 602.05C384.264 601.344 385.235 600.991 385.852 600.108C386.381 599.313 387.087 598.607 387.793 597.812C387.264 596.311 387.793 594.898 388.057 593.397C389.91 593.044 389.91 593.044 389.822 591.102C389.822 590.748 389.91 590.307 390.086 590.13C390.704 589.424 391.321 588.806 392.027 588.1C392.027 587.835 391.939 587.482 392.027 587.128C392.115 586.775 392.203 586.422 392.38 586.157C393.35 585.098 394.409 583.95 395.467 582.978C395.82 582.625 396.261 582.36 396.702 582.272C397.673 582.096 398.202 581.478 398.555 580.683C398.643 580.418 398.731 580.33 398.819 580.153C397.761 578.564 396.349 577.239 393.703 576.71C388.675 575.738 382.853 573.001 379.854 569.116C375.178 562.847 368.827 561.699 362.388 559.845C362.035 552.958 359.388 548.014 352.42 545.188C348.362 543.511 344.569 540.421 341.569 537.065C335.394 530.355 328.337 527.794 319.516 530.355C318.81 530.532 317.84 529.737 316.429 529.207C307.96 512.608 291.464 504.396 274.792 495.037C278.056 494.772 280.085 494.596 282.731 494.331C281.849 492.565 281.585 491.064 280.702 490.357C275.763 486.208 270.293 483.294 263.677 482.323C255.915 481.175 251.063 476.76 245.329 467.048C250.446 469.343 254.68 472.522 259.179 473.052C269.588 474.464 277.968 479.674 285.819 485.59C298.521 495.302 313.694 501.129 325.603 512.078C326.573 512.961 328.073 513.579 329.308 513.667C334.424 513.932 337.159 517.817 340.775 520.466C344.392 523.115 348.362 525.322 352.331 527.529C355.507 529.295 358.947 530.62 362.123 532.386C372.267 538.213 381.53 545.718 392.997 549.25C394.232 549.603 395.291 550.751 396.438 551.457C403.671 555.342 410.905 559.316 418.138 563.2C418.403 562.759 418.932 562.582 419.461 562.494C419.814 562.494 420.167 562.494 420.52 562.406C421.578 562.229 422.284 561.523 422.372 560.463C422.46 559.669 422.725 559.051 423.254 558.521C423.519 558.256 423.784 557.991 423.96 557.638C424.666 556.402 425.636 555.342 426.959 554.812C427.489 554.636 427.841 554.283 428.106 553.665C428.547 552.782 428.635 552.782 430.223 553.4C430.488 553.135 430.753 552.958 430.929 552.782C431.988 551.546 433.311 550.663 434.546 549.691C435.781 548.632 437.368 548.279 438.868 547.837C439.574 547.661 440.103 547.307 440.544 546.778C441.073 546.16 441.691 545.453 442.397 544.924C443.191 544.394 443.984 543.511 445.219 543.864C446.366 543.334 447.601 543.423 448.836 543.423C449.454 543.423 449.895 543.158 450.336 542.716C450.689 542.363 451.218 542.098 451.659 542.275C452.718 542.804 453.6 542.186 454.57 542.01C455.276 542.54 455.981 542.981 456.687 543.511C457.657 542.804 458.628 542.804 459.422 543.511C460.304 544.217 461.098 544.217 462.509 543.687C463.303 543.952 463.479 545.1 464.803 545.012C465.861 546.778 467.625 546.513 469.743 546.689C470.36 547.396 470.977 547.749 471.86 547.661L468.067 545.542C471.066 543.864 472.654 545.188 473.8 547.307C473.889 547.307 474.065 547.307 474.153 547.307C474.947 547.396 475.653 547.661 476.535 547.749C477.064 547.749 477.505 548.102 478.123 548.367C479.005 547.396 480.24 547.749 481.387 547.484C482.445 547.219 483.327 546.866 485.444 546.336C486.062 546.601 486.591 546.689 487.209 546.336C487.738 545.983 488.267 546.16 488.708 546.689C489.326 547.484 490.12 548.014 491.09 548.367C491.796 548.544 492.06 549.073 492.149 549.78C492.237 550.574 492.413 551.369 492.854 552.34C494.266 552.252 494.883 553.047 495.236 554.194C495.324 554.459 495.412 554.724 495.501 554.989C497.265 555.254 498.941 554.901 500.705 553.135C499.559 550.486 498.324 547.749 497.089 545.012C507.145 552.958 507.145 552.958 507.233 562.582C503.705 562.759 500.617 561.876 497.706 560.463C497.706 560.64 497.706 560.905 497.706 561.17C498.059 562.053 498.588 562.936 498.941 563.819C499.117 564.172 499.206 564.613 499.206 565.055C499.206 565.938 499.294 566.732 499.47 567.615C499.735 569.028 499.823 570.441 499.911 571.853C500 572.648 499.647 573.443 499.206 574.149C498.853 574.767 498.588 575.473 498.323 576.18C497.971 577.151 497.618 578.122 497.353 579.182C497.089 580.153 497 581.124 496.736 582.096C496.206 584.391 495.765 586.687 494.619 588.718C494.001 589.777 493.56 590.748 493.295 591.985C493.207 592.603 492.854 593.132 492.501 593.662C491.531 594.987 491.002 596.488 490.737 598.077C490.737 598.253 490.649 598.518 490.561 598.695C495.148 601.079 499.647 603.728 503.969 606.818C506.174 608.407 508.909 609.202 511.379 610.35C517.113 612.999 522.758 615.647 528.933 618.561C531.139 616.972 534.05 615.383 537.931 617.767C550.457 625.183 565.189 627.744 577.627 635.602C580.979 637.721 585.213 638.692 589.183 639.752C598.445 642.224 607.707 644.431 617.058 646.727C627.379 649.288 637.788 649.906 648.197 647.434C651.902 646.551 655.254 645.05 657.195 641.694C664.075 629.775 665.134 616.884 658.694 605.14C650.667 590.395 641.316 576.18 626.409 566.909C623.321 564.966 620.234 563.024 617.411 560.817C614.147 558.344 609.913 556.137 608.237 552.782C602.944 542.186 593.946 538.213 582.478 536.8C582.831 527 577.098 523.821 568.453 523.909C568.364 519.053 566.071 515.875 561.396 515.257C553.456 514.109 546.752 510.577 540.577 505.632C538.46 503.955 535.726 503.16 533.344 501.747C532.638 501.394 532.285 500.423 531.756 499.717C532.726 498.392 533.609 496.98 534.755 495.302C530.345 491.329 525.14 489.651 520.112 487.532C515.966 485.766 511.644 484.177 507.762 481.881C498.765 476.583 489.943 470.844 481.122 465.193C478.652 463.604 476.094 462.191 473.536 460.602C473.447 460.779 473.359 460.955 473.359 461.044C473.183 461.573 472.918 461.927 472.124 461.838C471.595 462.28 471.419 462.898 470.007 464.575C470.007 465.458 469.301 465.988 468.596 467.136C467.978 467.224 467.625 467.666 467.361 468.284C467.184 468.637 467.008 469.078 466.743 469.785C466.92 470.403 466.567 470.933 466.302 471.374C465.949 472.08 465.508 472.787 464.185 473.317C463.744 473.67 463.303 473.758 462.333 473.317C461.803 473.493 461.274 473.405 460.127 473.846C459.775 473.67 459.422 473.581 458.716 473.935C458.187 473.758 457.746 473.846 457.216 473.935C456.599 474.023 456.07 473.846 454.57 473.758C453.864 473.493 453.159 473.228 452.012 472.434C451.218 472.257 450.6 471.904 449.895 471.551C449.542 471.374 449.101 471.374 448.748 471.286C448.219 471.286 447.601 471.109 447.072 470.933C446.719 470.844 446.454 470.579 445.837 469.608C445.66 469.255 445.484 468.99 445.043 468.814C444.514 468.637 444.161 468.195 443.72 466.959C443.191 466.165 442.573 465.37 442.044 464.664C441.514 463.957 441.162 463.163 440.985 462.015C441.338 461.309 440.897 460.779 440.721 460.161C440.544 459.543 440.368 458.925 440.544 458.218C440.632 457.777 440.368 457.512 440.544 456.364C440.632 456.011 440.721 455.746 440.632 455.305C440.544 454.863 440.632 454.333 440.809 453.009C440.632 452.656 440.368 452.302 440.191 451.949C440.191 451.331 440.191 450.625 440.632 449.389C440.632 448.418 440.985 447.535 441.691 446.917C441.514 446.21 441.691 445.504 441.867 443.561C441.779 443.12 441.514 442.767 441.162 442.502C440.809 442.237 440.632 441.884 440.632 441.354C440.632 441.001 440.456 440.648 440.456 440.294C440.368 439.941 440.368 439.5 440.368 439.147C440.456 438.352 440.721 437.557 440.897 436.763C440.985 436.586 440.985 436.321 441.073 436.145C436.663 432.789 432.164 430.317 426.783 431.288C421.843 420.163 418.314 417.338 407.817 416.19C403.759 415.749 399.084 415.572 397.143 411.334C393.703 403.829 386.734 399.944 381.177 394.734C375.531 389.348 367.592 386.788 362.123 381.843C352.331 372.926 340.07 367.098 332.131 356.15C331.425 355.09 330.19 354.119 328.955 353.677C320.31 350.587 315.105 343.788 309.901 336.813C307.784 333.988 305.137 330.897 301.962 329.485C295.258 326.394 291.2 321.362 287.936 315.093C286.436 312.356 284.143 310.06 282.29 307.499C273.91 296.639 265.53 285.867 257.326 274.919C255.385 272.446 253.357 269.709 256.091 265.736C261.296 265.118 266.412 267.06 271.44 269.003C277.35 271.299 283.349 273.594 289.083 276.42C297.639 280.658 306.284 284.896 314.4 290.017C335.218 303.085 354.89 318.006 376.237 330.279C378.972 331.869 381.353 334.164 383.911 336.019C387.264 338.402 390.527 340.875 393.968 343.082C400.143 346.967 406.318 350.852 412.669 354.472C419.285 358.357 425.813 362.772 432.958 365.686C441.162 368.952 448.571 372.926 454.658 379.371C457.393 382.285 461.009 385.463 464.714 386.17C472.301 387.583 477.946 392.174 484.209 395.794C489.326 398.796 494.089 402.504 499.382 405.065C514.996 412.57 530.521 420.075 545.165 429.522C546.664 430.494 548.428 431.023 550.193 431.642C562.101 436.145 574.098 440.559 585.919 445.151C588.477 446.122 590.77 447.623 593.152 448.947C595.975 450.448 598.533 452.391 601.444 453.627C614.059 458.925 627.114 463.251 639.288 469.432C651.99 475.877 663.811 473.67 675.896 470.138C676.866 465.017 676.954 460.249 678.719 456.276C680.924 451.508 679.954 447.535 678.278 443.12C675.896 436.763 673.691 430.317 671.132 423.165C663.193 416.278 654.813 408.597 646.08 401.445C640.787 397.118 634.965 393.587 629.319 389.79C625.879 387.494 621.91 385.905 618.91 383.256C609.736 375.045 600.209 367.451 588.124 363.743C585.213 362.86 582.214 361.006 580.097 358.71C575.863 354.207 570.482 352 565.277 349.174C559.279 345.908 553.28 342.641 547.458 339.021C535.638 331.516 524.17 323.481 512.173 316.152C494.178 305.292 474.33 298.228 456.158 287.986C451.041 285.073 446.013 281.982 441.162 278.539C431.194 271.387 421.49 264.058 409.052 261.056C401.642 259.291 394.85 255.052 389.028 249.666C385.676 246.664 381.883 244.192 378.178 241.455C365.74 232.361 351.89 225.032 342.187 212.494C341.569 211.7 341.569 210.287 341.216 208.698C343.334 209.051 344.745 208.874 345.892 209.404C367.769 220.794 389.645 232.096 410.022 246.046C412.669 247.812 415.051 250.284 417.962 251.344C427.93 254.964 436.398 261.233 445.396 266.531C451.659 270.239 457.746 274.566 464.45 277.214C471.86 280.216 477.858 284.808 484.033 289.576C490.561 294.52 496.824 299.729 503.528 304.497C505.998 306.263 509.262 307.941 512.173 308.029C518.612 308.382 523.288 311.826 527.963 315.534C531.844 318.624 535.461 322.509 539.872 324.629C553.368 331.251 566.159 339.021 578.862 347.055C597.386 358.622 616.97 368.688 636.112 379.283C643.434 383.344 651.461 385.199 659.665 386.258C664.252 386.876 666.898 385.817 668.751 382.903C668.486 382.815 668.31 382.726 668.045 382.55C665.134 379.724 661.341 378.841 658.518 376.457C657.459 375.574 656.313 374.78 655.166 373.897C654.372 373.279 653.666 372.484 652.784 371.954C647.403 368.776 642.816 364.538 638.141 360.476C635.583 358.357 633.024 356.326 630.643 354.031C625.526 348.91 619.351 345.113 613.882 340.345C611.236 337.961 608.854 335.4 606.472 332.752C602.15 327.895 598.092 322.951 594.299 317.742C592.182 314.74 590.065 311.738 588.477 308.382C587.948 307.234 587.683 306.087 588.036 304.762C588.653 302.202 588.918 299.465 589.447 296.904C583.184 290.723 576.921 284.454 570.305 277.832C565.012 280.393 559.896 280.04 555.485 275.713C554.515 274.83 553.104 274.124 551.869 273.859C544.988 272.623 540.842 267.767 536.52 262.999C533.785 259.997 531.139 256.818 528.492 253.905C525.581 253.463 522.935 253.11 520.024 252.668C515.878 244.545 509.527 239.248 501.058 235.804C495.677 233.597 490.825 229.888 485.885 226.533C483.68 225.032 481.739 223.001 480.152 220.794C478.387 218.322 478.211 215.673 481.828 214.349C482.71 214.525 483.768 214.525 484.474 214.967C490.031 218.852 496.03 222.03 501.235 226.622C506.263 230.948 513.231 232.979 517.907 238.188C518.789 239.159 520.024 239.954 521.171 240.66C523.199 241.808 525.493 242.779 527.345 240.572C529.11 238.453 528.404 236.157 526.375 234.656C523.817 232.714 521.082 231.036 518.348 229.447C505.733 222.119 493.031 214.878 480.416 207.462C478.564 206.314 476.182 205.343 476.623 201.634C477.858 201.193 479.622 199.868 480.946 200.133C490.737 202.252 500.97 203.488 510.056 207.285C527.698 214.613 544.812 223.266 562.013 231.743C574.628 238.012 587.066 244.457 599.592 250.903C600.209 249.843 600.915 248.783 601.532 247.724C603.297 244.722 605.767 242.338 608.678 240.484C610.177 239.513 611.589 238.453 613 237.393C615.558 235.363 618.293 233.685 621.116 232.272C620.586 231.301 620.057 230.33 619.528 229.359C611.412 214.084 596.857 205.872 583.008 197.308C576.215 193.07 567.571 191.745 560.161 188.213C550.898 183.799 540.489 184.24 531.139 180.62C515.437 174.616 499.029 174.793 482.622 175.764C475.124 176.205 468.508 177.265 463.832 184.593C460.568 189.626 454.746 190.244 449.101 187.507C445.043 185.476 440.985 183.269 436.927 181.326C435.428 180.62 433.487 179.649 432.605 182.298C433.134 183.092 433.399 184.064 434.105 184.593C436.663 186.447 439.221 188.655 442.044 189.803C451.394 193.511 454.658 201.722 459.333 211.611C449.983 208.345 444.161 202.694 437.016 196.866C436.222 200.398 435.692 202.517 435.251 204.548C434.722 206.844 433.928 209.581 431.282 209.316C429.429 209.139 427.665 207.197 426.165 205.696C424.93 204.46 424.048 202.87 422.99 201.458C427.136 198.102 427.577 195.365 423.784 193.511C416.815 190.068 410.552 185.653 404.377 180.885C402.348 179.207 399.437 178.501 396.879 177.795C395.203 177.353 393.262 177.353 392.997 179.737C394.497 184.858 403.848 183.092 402.877 191.392C396.526 190.597 392.38 186.977 387.793 184.328C371.385 174.704 353.743 169.23 334.777 168.082C320.222 167.023 310.342 176.294 310.43 190.597ZM226.099 398.973C227.246 398.796 227.598 399.502 227.951 400.209C227.334 399.856 226.628 399.502 226.099 398.973ZM362.123 559.58C361.329 559.669 360.623 559.757 359.829 559.757C360.8 558.786 361.505 559.227 362.123 559.58ZM373.15 479.497C372.267 478.703 371.562 477.555 370.944 476.495C372.179 476.672 373.414 476.76 374.561 477.202C375.09 477.378 375.178 478.526 375.531 479.232C374.649 479.409 373.591 479.85 373.15 479.497ZM392.733 490.181C393.527 489.033 394.497 488.856 394.85 489.21C395.644 490.181 396.085 491.417 396.614 492.565C394.321 492.3 393.438 491.24 392.733 490.181ZM453.247 531.414C452.894 531.326 452.629 530.796 452.717 530.443C452.894 529.913 453.423 529.649 453.864 529.825C454.217 530.002 454.394 530.267 454.305 530.708C454.305 531.15 453.688 531.503 453.247 531.414ZM455.276 538.919C455.452 538.919 455.54 539.096 455.893 539.449C455.276 539.449 455.011 539.538 455.276 538.919ZM455.717 536.094C455.717 535.741 456.158 535.476 456.334 535.653C456.511 535.741 456.687 536.006 455.717 536.094ZM544.106 588.629C542.43 582.979 538.99 579.358 534.226 576.268C532.109 574.944 530.786 572.207 529.286 570.087C526.993 566.909 524.876 563.642 521.347 558.521C528.933 559.316 533.609 563.377 538.284 566.291C543.047 569.293 543.841 576.533 549.222 579.712C549.752 583.95 550.281 588.1 550.81 592.249C547.017 593.132 544.812 591.102 544.106 588.629ZM310.166 230.242C310.254 231.125 310.43 232.096 310.518 232.979C309.901 231.478 309.989 230.86 310.166 230.242ZM590.329 411.687C584.684 414.777 581.773 412.835 579.479 404.27C584.331 405.506 587.33 408.42 590.329 411.687ZM507.762 367.275C502.028 366.039 499.206 364.008 496.206 362.683C495.589 362.419 495.501 361.271 494.795 359.593C500 359.505 502.999 362.242 507.762 367.275ZM377.737 271.122C378.619 272.005 379.413 272.888 380.03 273.947C378.178 274.477 377.384 273.506 376.678 272.446C377.737 271.122 377.737 271.122 377.737 271.122ZM470.889 209.934C470.889 209.669 472.83 209.316 472.918 209.492C473.359 210.552 473.536 211.7 473.8 212.759C473.095 212.936 472.301 213.112 471.154 213.377C471.066 212.141 470.801 210.993 470.889 209.934ZM468.331 222.56C469.037 223.001 470.007 223.178 470.36 223.796C470.713 224.326 470.36 225.297 470.272 226.003C469.566 225.65 468.508 225.474 468.155 224.856C467.89 224.414 468.243 223.443 468.331 222.56ZM336.541 237.393C334.336 236.599 333.895 235.01 333.454 233.42L336.541 237.393Z" fill="#E5D1B8"/>
<path d="M461.975 12.7407C458.575 12.8407 455.775 11.5407 453.175 9.44072C450.275 7.04072 446.675 5.54069 442.875 5.54069C437.975 5.44069 433.675 3.74072 429.375 1.94072C424.375 -0.0592847 419.375 -0.959285 414.275 1.44072C413.375 1.84072 412.175 2.24072 411.475 1.94072C408.575 0.540715 405.575 1.14072 402.675 1.44072C401.475 1.64072 400.275 1.74067 399.075 1.64067C396.375 1.44067 394.275 2.14069 392.675 4.54069C392.075 5.54069 390.975 6.5407 389.875 6.7407C384.375 7.9407 380.175 11.4407 375.575 14.1407C371.175 16.6407 368.275 20.0407 366.075 24.1407C364.275 27.5407 362.375 30.4407 359.275 32.7407C359.075 32.8407 358.875 33.0407 358.675 33.1407C355.675 35.1407 354.175 38.0407 354.475 42.0407C354.675 45.3407 354.275 48.6407 352.975 51.7407C352.675 52.5407 352.275 53.4407 351.775 54.2407C350.875 55.8407 350.475 58.1407 350.775 59.9407C351.575 63.7407 352.575 67.6407 354.275 71.1407C355.575 73.9407 356.375 76.6407 356.875 79.5407C357.175 81.1407 357.875 82.9407 358.975 84.1407C363.475 88.9407 366.075 94.1407 364.375 100.941C363.975 102.441 364.375 104.641 365.275 105.841C367.875 109.441 370.775 112.741 373.775 116.041C376.275 118.841 379.475 118.141 380.575 114.641C381.175 112.841 380.575 110.541 382.775 109.441C386.375 113.241 386.475 113.141 392.675 114.541C396.475 115.441 400.175 116.841 403.375 119.441C408.075 123.341 412.475 127.741 418.975 128.841C419.675 128.941 420.375 129.341 420.875 129.841C422.775 131.841 425.175 131.941 427.675 132.141C429.775 132.341 431.975 132.741 434.075 133.041C434.075 133.541 434.075 134.141 434.075 134.641C427.675 135.341 422.475 138.741 417.375 141.941C415.575 143.141 413.875 143.541 411.875 143.141C407.575 142.241 403.175 141.441 399.275 140.741C396.575 142.941 394.375 144.941 391.975 146.541C389.175 148.341 387.675 150.641 388.175 153.941C388.475 155.741 388.375 157.241 386.975 158.641C384.875 160.741 384.975 163.141 386.975 165.241C389.475 168.041 389.275 170.441 386.775 173.041C386.075 173.741 385.775 174.641 385.075 175.741C386.275 177.341 387.475 178.841 388.575 180.341C388.475 182.641 388.575 184.841 388.275 187.041C387.775 191.241 385.775 194.441 381.475 195.841C379.675 196.441 377.775 197.041 376.075 197.641C369.675 192.741 366.475 192.941 360.575 198.341C359.275 199.541 357.975 200.541 356.775 201.641C356.275 206.741 356.275 206.741 353.475 210.541C352.175 212.341 350.675 213.941 349.375 215.741C343.475 223.841 342.975 226.141 345.275 234.841C345.375 235.341 345.475 235.841 345.675 236.241C348.075 240.241 350.375 244.541 356.075 244.341C357.075 244.341 358.275 244.241 358.875 244.841C362.075 247.841 365.775 246.841 369.475 246.341C371.175 246.141 372.875 245.841 374.575 245.641C378.375 245.341 381.375 246.441 382.875 250.241C384.075 253.341 386.475 255.341 389.475 256.841C392.075 258.141 394.675 260.041 396.375 262.341C399.875 267.041 404.475 268.541 409.875 268.841C411.775 268.941 413.775 269.141 415.675 269.641C422.275 271.241 428.875 271.541 435.375 269.041C437.975 268.041 440.575 267.541 443.275 268.941C444.275 269.441 445.875 269.641 446.775 269.241C452.275 266.741 457.375 263.741 458.175 256.741C458.575 253.641 459.375 250.541 459.875 247.641C468.375 245.041 470.475 244.541 471.575 238.641C473.275 238.741 474.975 238.941 476.675 238.741C479.475 238.341 480.775 236.941 480.475 234.241C480.175 231.341 479.975 228.141 478.775 225.541C477.075 221.941 477.475 218.941 479.175 215.641C479.975 214.141 481.175 212.441 480.975 210.941C480.375 205.841 481.075 200.441 477.975 195.841C477.775 195.541 478.075 194.941 478.175 193.941C479.375 193.641 480.675 193.241 482.075 193.041C486.975 192.141 490.975 190.241 492.375 184.841C492.975 182.541 494.875 180.541 495.675 178.241C497.475 173.341 501.075 170.941 505.775 169.141C514.575 165.741 523.175 161.941 531.775 158.341C535.175 156.941 538.475 155.341 541.875 153.941C542.375 153.741 542.875 153.541 543.375 153.341C547.775 151.541 551.075 151.641 555.775 154.041C552.675 154.841 550.175 155.441 546.975 156.241V156.341C547.275 161.041 544.175 163.041 540.275 164.741C535.575 166.741 533.075 170.641 532.575 175.741C532.175 179.641 532.075 183.641 531.775 187.441C533.175 190.541 535.975 192.641 538.675 192.841C544.375 193.241 547.875 197.041 551.875 200.141C552.375 200.541 553.275 200.641 554.275 200.941C557.775 198.541 561.375 196.041 565.175 193.541C571.175 196.941 576.975 199.541 583.475 197.141C584.775 195.841 585.975 194.641 587.175 193.441C588.675 194.041 589.775 194.441 590.975 194.841C592.175 195.241 593.275 195.741 594.475 195.941C597.475 196.241 599.675 193.141 598.275 190.441C597.575 189.141 596.575 188.041 595.775 186.741C594.675 185.041 594.775 183.541 596.075 181.941C596.675 181.141 597.275 180.341 597.975 179.541C598.075 179.341 598.275 179.141 598.375 179.041C605.175 180.941 608.075 175.641 611.675 171.441C613.775 172.741 615.375 174.141 617.375 175.041C620.275 176.341 623.375 177.341 626.375 178.241C629.675 179.141 632.975 180.341 636.575 179.441C639.075 178.741 641.275 177.741 641.575 174.741C641.775 172.741 642.675 171.141 644.575 170.341C644.675 170.341 644.675 170.241 644.775 170.241L646.175 170.741L649.175 171.841C649.375 171.641 649.575 171.441 649.775 171.341C651.975 169.341 653.975 167.441 656.175 165.941C658.775 164.141 660.375 161.941 660.675 159.241C660.675 158.941 660.775 158.641 660.775 158.341C662.875 157.341 665.475 157.041 666.275 155.641C669.275 150.641 672.975 145.641 672.675 139.341C672.575 137.741 672.475 136.241 672.275 134.641C672.075 132.241 671.775 129.941 671.675 127.541C671.475 124.141 670.475 121.441 667.975 118.941C666.475 117.441 665.675 115.141 664.675 113.241C663.275 110.641 661.975 108.041 659.575 106.041C658.275 104.941 656.975 103.541 656.275 102.041C654.975 98.9407 652.575 97.5407 649.475 96.8407C648.775 96.6407 648.075 96.3407 647.375 96.0407C641.175 93.0407 635.975 88.1407 629.075 86.3407C626.575 83.3407 622.575 82.7407 619.575 80.6407C616.375 78.3407 613.775 75.3407 610.875 72.6407C609.975 71.7407 608.975 70.9407 608.075 70.2407C606.075 68.7407 603.875 67.5407 601.175 68.0407C599.075 68.4407 597.375 67.8407 595.475 66.9407C593.475 66.0407 591.275 65.2407 589.075 65.1407C582.075 64.6407 575.475 62.7407 569.275 59.4407C565.575 57.4407 561.475 55.8407 557.175 56.3407C550.375 57.1407 543.475 57.5407 536.775 58.7407C535.475 58.9407 534.175 59.2407 532.975 59.5407C531.575 59.8407 529.775 60.1407 528.675 59.4407C524.175 56.5407 519.075 54.3407 515.075 50.7407C514.475 50.1407 513.875 49.5407 513.275 48.9407C513.175 48.8407 512.975 48.6407 512.875 48.5407C509.675 44.8407 506.175 41.3407 502.775 37.7407C501.775 36.6407 500.675 35.5407 499.375 34.8407C494.575 32.3407 489.675 29.9407 484.775 27.6407C482.775 26.7407 480.575 26.0407 478.575 25.2407C476.375 24.3407 474.575 22.9407 474.275 20.5407C474.075 19.1407 473.675 17.9407 473.075 17.0407C472.375 15.9407 471.475 15.1407 470.275 14.6407C469.075 14.0407 467.675 13.8407 466.075 13.7407C464.975 13.2407 463.475 12.6407 461.975 12.7407Z" fill="#C28753"/>
<path d="M312 600L300 606.928V593.072L312 600Z" fill="black"/>
</svg>
