<svg width="97" height="155" viewBox="0 0 97 155" fill="none" xmlns="http://www.w3.org/2000/svg">
<path d="M3.70839 44.3956C2.84211 45.6735 3.06099 47.2837 2.41369 50.1719C5.45047 49.5589 7.61214 49.865 8.84604 48.9372C9.55488 48.5608 9.48451 45.6904 8.91551 44.4478C7.9701 42.4962 4.74089 42.5752 3.70839 44.3956Z" fill="#C28753"/>
<path d="M29.8492 56.3186C28.9654 56.8789 28.3004 59.0495 28.493 59.5833C31.0927 63.1099 33.6836 66.2777 36.6333 69.4368C37.3685 70.1369 40.2215 69.3489 41.0965 68.4298C41.9716 67.5108 42.2689 64.9903 41.6999 63.7476C40.7545 61.7961 38.7503 60.5884 35.9844 57.6043C35.9844 57.6043 34.6978 56.3795 33.2449 55.697C32.5185 55.3558 30.7243 55.3996 29.8492 56.3186Z" fill="#C28753"/>
<path d="M28.6587 44.3248C28.1337 44.8762 28.3528 46.4864 28.2129 48.1055C29.8232 47.8866 31.2671 48.2101 31.7921 47.6587C32.4922 46.9234 32.4485 45.1295 31.7132 44.4294C31.1618 43.9044 29.1838 43.7734 28.6587 44.3248Z" fill="#C28753"/>
<path d="M19.8882 133.404C22.312 129.754 23.1167 125.965 20.692 122.255C16.9456 115.884 12.6653 109.705 8.36746 102.809C3.36155 103.65 -0.944466 103.756 -5.22394 104.938C-20.5653 108.904 -26.3135 123.406 -18.0854 136.848C-13.5949 144.278 -2.91749 147.786 4.88864 144.004C10.5682 141.352 16.2568 139.058 19.8882 133.404Z" fill="#C28753"/>
<path d="M32.7841 29.6845C31.9002 30.2447 32.1368 32.5729 32.0233 35.2684C34.5263 34.848 36.5041 34.9789 37.563 34.2349C39.1469 32.9394 39.0942 30.7867 37.2737 29.7542C36.1797 29.063 33.843 28.9405 32.7841 29.6845Z" fill="#C28753"/>
<path d="M52.4087 39.2517C51.8925 40.1619 51.9187 41.2383 51.4288 43.225C53.2141 42.8222 54.1069 42.6209 52.4087 39.2517Z" fill="#C28753"/>
<path d="M20.3365 49.0112C19.6012 48.3111 17.9908 48.53 16.3717 48.3902C16.2319 50.0093 15.9083 51.4533 16.2847 52.1622C17.5801 53.7461 19.3741 53.7021 20.4154 52.2404C21.2992 51.6802 21.0717 49.7112 20.3365 49.0112Z" fill="#C28753"/>
<path d="M53.8396 24.5004C52.9645 25.4194 52.8426 27.7562 53.5866 28.8151C54.5232 30.4078 56.6847 30.7138 57.901 29.0683C58.7761 28.1493 58.5484 26.1802 59.2045 23.6508C56.5178 23.8962 54.3558 23.5902 53.8396 24.5004Z" fill="#C28753"/>
<path d="M38.1224 5.67358C39.9165 5.62962 41.3607 5.95305 42.0696 5.57665C43.6535 4.28121 43.6095 2.48724 42.1478 1.44595C41.4214 1.10471 39.4524 1.3326 38.9274 1.88402C38.0435 2.44423 38.2623 4.05449 38.1224 5.67358Z" fill="#C28753"/>
</svg>
